<?xml version="1.0" encoding="UTF-8"?>
<!DOCTYPE svg PUBLIC "-//W3C//DTD SVG 1.1//EN" "http://www.w3.org/Graphics/SVG/1.1/DTD/svg11.dtd">
<!-- Creator: CorelDRAW X8 -->
<svg xmlns="http://www.w3.org/2000/svg" xml:space="preserve" width="143px" version="1.1" style="shape-rendering:geometricPrecision; text-rendering:geometricPrecision; image-rendering:optimizeQuality; fill-rule:evenodd; clip-rule:evenodd"
viewBox="0 0 3200000 1139982"
 xmlns:xlink="http://www.w3.org/1999/xlink">
 <defs>
  <style type="text/css">
   <![CDATA[
    .fil0 {fill:#2B2A29;fill-rule:nonzero}
   ]]>
  </style>
 </defs>
 <g id="Layer_x0020_1">
  <metadata id="CorelCorpID_0Corel-Layer"/>
  <g id="_2023917218544">
   <path class="fil0" d="M92906 2350l0 25016 -62504 0 0 35032 -25016 0 0 -60048 87520 0zm-87520 110056l25016 0 0 75012 -25016 0 0 -75012zm0 125020l25016 0 0 75013 -25016 0 0 -75013zm0 125021l25016 0 0 75012 -25016 0 0 -75012zm0 125020l25016 0 0 75000 -25016 0 0 -75000zm0 125008l25016 0 0 75013 -25016 0 0 -75013zm0 125021l25016 0 0 75012 -25016 0 0 -75012zm0 125020l25016 0 0 75012 -25016 0 0 -75012zm0 125020l25016 0 0 75013 -25016 0 0 -75013zm0 125021l74977 47 0 25016 -74977 0 0 -25063zm124985 25063l0 -25016 75012 0 0 25016 -75012 0zm125020 0l0 -25016 75012 0 0 25016 -75012 0zm125020 0l0 -25016 75013 0 0 25016 -75013 0zm125021 0l0 -25016 75000 0 0 25016 -75000 0zm125008 0l0 -25016 75012 0 0 25016 -75012 0zm125020 0l0 -25016 75013 0 0 25016 -75013 0zm125021 0l0 -25016 75012 0 0 25016 -75012 0zm125020 0l0 -25016 75012 0 0 25016 -75012 0zm125020 0l0 -25016 75012 0 0 25016 -75012 0zm125021 0l0 -25016 75012 0 0 25016 -75012 0zm125020 0l0 -25016 75012 0 0 25016 -75012 0zm125020 0l0 -25016 75012 0 0 25016 -75012 0zm125021 0l0 -25016 75012 0 0 25016 -75012 0zm125020 0l0 -25016 75012 0 0 25016 -75012 0zm125020 0l0 -25016 75012 0 0 25016 -75012 0zm125020 0l0 -25016 75013 0 0 25016 -75013 0zm125021 0l0 -25016 75012 0 0 25016 -75012 0zm125020 0l0 -25016 75012 0 0 25016 -75012 0zm125020 0l0 -25016 75012 0 0 25016 -75012 0zm125021 0l0 -25016 75012 0 0 25016 -75012 0zm125020 0l0 -25016 75012 0 0 25016 -75012 0zm125020 0l0 -25016 75012 0 0 25016 -75012 0zm125021 0l0 -25016 75012 0 0 25016 -75012 0zm125020 0l0 -25016 75012 0 0 25016 -75012 0zm125020 0l0 -25016 38740 0 0 -11268 25016 0 0 36284 -63756 0zm63756 -86292l-25016 0 0 -75012 25016 0 0 75012zm0 -125020l-25016 0 0 -75001 25016 0 0 75001zm0 -125009l-25016 0 0 -75012 25016 0 0 75012zm0 -125020l-25016 0 0 -75012 25016 0 0 75012zm0 -125020l-25016 0 0 -75013 25016 0 0 75013zm0 -125021l-25016 0 0 -75012 25016 0 0 75012zm0 -125020l-25016 0 0 -75012 25016 0 0 75012zm0 -125020l-25016 0 0 -75012 25016 0 0 75012zm0 -125021l-25016 0 0 -23811 -26197 0 0 -25016 51213 0 0 48827zm-101221 -48827l0 25016 -75012 0 0 -25016 75012 0zm-125020 0l0 25016 -75012 0 0 -25016 75012 0zm-125020 0l0 25016 -75012 0 0 -25016 75012 0zm-125021 0l0 25016 -75012 0 0 -25016 75012 0zm-125020 0l0 25016 -75012 0 0 -25016 75012 0zm-125020 0l0 25016 -75012 0 0 -25016 75012 0zm-125020 0l0 25016 -75013 0 0 -25016 75013 0zm-125021 0l0 25016 -75012 0 0 -25016 75012 0zm-125020 0l0 25016 -75012 0 0 -25016 75012 0zm-125020 0l0 25016 -75013 0 0 -25016 75013 0zm-125021 0l0 25016 -75012 0 0 -25016 75012 0zm-125020 0l0 25016 -75012 0 0 -25016 75012 0zm-125020 0l0 25016 -75012 0 0 -25016 75012 0zm-125021 0l0 25016 -75012 0 0 -25016 75012 0zm-125020 0l0 25016 -75000 0 0 -25016 75000 0zm-125008 0l0 25016 -75013 0 0 -25016 75013 0zm-125021 0l0 25016 -75012 0 0 -25016 75012 0zm-125020 0l0 25016 -75012 0 0 -25016 75012 0zm-125020 0l0 25016 -75012 0 0 -25016 75012 0zm-125021 0l0 25016 -75012 0 0 -25016 75012 0zm-125020 0l0 25016 -75012 0 0 -25016 75012 0zm-125020 0l0 25016 -75012 0 0 -25016 75012 0zm-125020 0l0 25016 -75013 0 0 -25016 75013 0zm-125021 0l0 25016 -75012 0 0 -25016 75012 0z"/>
   <path class="fil0" d="M904670 487172c0,-8363 3366,-14693 10110,-19004l47729 -36402c3236,-2705 6874,-4051 10913,-4051 5929,0 11327,1618 16181,4854 4855,3236 7276,7276 7276,12130l0 262903c0,5126 -2622,9165 -7878,12130 -5268,2964 -11398,4453 -18402,4453 -7287,0 -13488,-1489 -18614,-4453 -5114,-2965 -7677,-7004 -7677,-12130l0 -215978 -12945 12945c-2693,2422 -5929,3638 -9709,3638 -4854,0 -8894,-2161 -12130,-6472 -3236,-4311 -4854,-9166 -4854,-14563zm133867 146823l0 -112843c0,-32091 8834,-55547 26492,-70382 17669,-14835 41327,-22240 70984,-22240 29930,0 52784,7476 68552,22441 15780,14964 23669,32161 23669,51567 0,8090 -1960,13760 -5870,16996 -3909,3224 -10181,4843 -18803,4843 -18343,0 -27508,-6603 -27508,-19808 0,-9177 -3980,-16452 -11929,-21850 -7949,-5386 -17729,-8091 -29327,-8091 -29386,0 -44079,15508 -44079,46524l0 44079c11587,-13748 29528,-20622 53788,-20622 25346,0 45638,6472 60874,19406 15236,12945 22854,34382 22854,64311l0 5669c0,32079 -8563,55536 -25689,70371 -17114,14834 -40110,22240 -68953,22240 -28854,0 -51910,-7406 -69166,-22240 -17255,-14835 -25889,-38292 -25889,-70371zm52181 4111c0,31476 14291,47256 42874,47256 28040,0 42059,-15780 42059,-47256l0 -5398c0,-31205 -14161,-46843 -42472,-46843 -28311,0 -42461,14351 -42461,43134l0 9107zm239434 15295c0,-8894 2162,-15095 6473,-18603 4323,-3507 10925,-5256 19819,-5256 10252,0 17197,1749 20834,5256 3638,3508 5457,8493 5457,14965 0,9709 3910,17256 11729,22654 7818,5386 17799,8090 29929,8090 28583,0 42874,-14964 42874,-44894l0 -7689c0,-15106 -3709,-26421 -11126,-33980 -7406,-7547 -17858,-11315 -31347,-11315l-59858 0c-7819,0 -13276,-1760 -16382,-5268 -3095,-3437 -4642,-8551 -4642,-15224 0,-1087 473,-2764 1417,-5056 874,-2303 1347,-4122 1347,-5397l8150 -106572c815,-11055 4181,-16582 10110,-16582l124583 0c4843,0 8693,2291 11516,6874 2835,4582 4252,9968 4252,16181 0,6201 -1417,11587 -4252,16169 -2823,4583 -6602,6874 -11457,6874l-90662 0 -5256 66745 31134 0c28855,0 51910,6945 69166,20823 17256,13890 25890,35799 25890,65728l0 7689c0,31276 -8634,54260 -25890,68953 -17256,14693 -40039,22040 -68351,22040 -29386,0 -52642,-7205 -69768,-21638 -17126,-14421 -25689,-31606 -25689,-51567zm217194 -19406l0 -112843c0,-32091 8563,-55547 25689,-70382 17115,-14835 40111,-22240 68953,-22240 28855,0 51910,7405 69166,22240 17256,14835 25890,38291 25890,70382l0 112843c0,32079 -8634,55536 -25890,70371 -17256,14834 -40311,22240 -69166,22240 -28842,0 -51838,-7406 -68953,-22240 -17126,-14835 -25689,-38292 -25689,-70371zm52583 0c0,31004 14020,46512 42059,46512 28312,0 42473,-15508 42473,-46512l0 -112843c0,-31016 -14161,-46524 -42473,-46524 -28039,0 -42059,15508 -42059,46524l0 112843zm28713 -39366c-3508,-3851 -5256,-8835 -5256,-15036 0,-6200 1689,-11197 5055,-14905 3378,-3697 8020,-5528 13961,-5528 5657,0 10169,1831 13547,5528 3366,3708 5055,8705 5055,14905 0,6201 -1689,11185 -5055,15036 -3378,3839 -7890,5787 -13547,5787 -5670,0 -10252,-1948 -13760,-5787zm145607 39366l0 -112843c0,-32091 8563,-55547 25689,-70382 17114,-14835 40110,-22240 68953,-22240 28855,0 51910,7405 69166,22240 17256,14835 25890,38291 25890,70382l0 112843c0,32079 -8634,55536 -25890,70371 -17256,14834 -40311,22240 -69166,22240 -28843,0 -51839,-7406 -68953,-22240 -17126,-14835 -25689,-38292 -25689,-70371zm52583 0c0,31004 14020,46512 42059,46512 28311,0 42473,-15508 42473,-46512l0 -112843c0,-31016 -14162,-46524 -42473,-46524 -28039,0 -42059,15508 -42059,46524l0 112843zm28713 -39366c-3508,-3851 -5256,-8835 -5256,-15036 0,-6200 1689,-11197 5055,-14905 3378,-3697 8020,-5528 13960,-5528 5658,0 10170,1831 13548,5528 3366,3708 5055,8705 5055,14905 0,6201 -1689,11185 -5055,15036 -3378,3839 -7890,5787 -13548,5787 -5669,0 -10252,-1948 -13759,-5787zm228119 112973l0 -159355c0,-4855 2362,-8764 7075,-11729 4724,-2964 10996,-4452 18815,-4452 6472,0 11929,1488 16382,4511 4441,2977 6673,6945 6673,11800l0 12271c11587,-20693 29386,-31004 53386,-31004 11327,0 21508,3709 30532,11185 9035,7489 15708,17398 20019,29599 6745,-13287 15579,-23469 26493,-30402 10925,-6945 22453,-10382 34583,-10382 19417,0 36271,7406 50563,22241 14291,14834 21437,34783 21437,59858l0 95859c0,4039 -2634,7819 -7890,11327 -5256,3508 -11398,5256 -18402,5256 -6744,0 -12744,-1748 -18000,-5256 -5256,-3508 -7889,-7288 -7889,-11256l0 -95658c0,-11256 -3237,-20221 -9709,-26764 -6473,-6602 -14150,-9910 -23055,-9910 -8622,0 -16111,3308 -22441,9910 -6343,6543 -9508,15366 -9508,26421l0 96402c0,5327 -2563,9367 -7678,12071 -5126,2693 -11326,4040 -18614,4040 -6732,0 -12732,-1418 -18000,-4252 -5256,-2823 -7878,-6804 -7878,-11859l0 -96059c0,-10713 -3307,-19477 -9909,-26150 -6615,-6744 -14363,-10122 -23256,-10122 -8634,0 -16052,3236 -22253,9709 -6200,6413 -9295,15307 -9295,26563l0 95658c0,4039 -2634,7748 -7890,11256 -5256,3508 -11397,5256 -18401,5256 -7288,0 -13418,-1689 -18402,-5055 -4996,-3367 -7488,-7217 -7488,-11528zm311635 -193973l0 -19713c0,-5965 2020,-11870 6107,-17693 4074,-5835 9000,-11091 14822,-15851l19382 -14055c6378,-4783 11800,-9803 16288,-15094 4476,-5292 6697,-10583 6697,-15910 0,-4748 -1583,-8965 -4784,-12638 -3165,-3673 -7890,-5492 -14114,-5492 -5291,0 -9650,1512 -13016,4583 -3401,3035 -5090,7618 -5090,13748 0,2634 -1217,4961 -3674,6945 -2456,2019 -5728,3035 -9874,3035 -7819,0 -11728,-4724 -11728,-14161 0,-11055 4276,-20020 12839,-26894 8563,-6874 18673,-10311 30330,-10311 12308,0 22926,3673 31926,11055 9000,7346 13476,17114 13476,29327 0,8150 -2185,15803 -6602,22949 -4382,7110 -9744,13181 -16110,18130 -6343,4961 -12674,9543 -18945,13748 -6296,4217 -11623,8433 -16040,12650 -4417,4204 -6602,8220 -6602,12023l0 4890 56386 0c2149,0 4110,1110 5799,3343 1677,2220 2528,4878 2528,7984 0,3094 -815,5835 -2469,8185 -1653,2362 -3531,3543 -5657,3543l-70583 0c-2493,0 -5020,-803 -7512,-2421 -2528,-1653 -3780,-3614 -3780,-5905z"/>
  </g>
 </g>
</svg>
