<?xml version="1.0" encoding="UTF-8"?>
<!DOCTYPE svg PUBLIC "-//W3C//DTD SVG 1.1//EN" "http://www.w3.org/Graphics/SVG/1.1/DTD/svg11.dtd">
<!-- Creator: CorelDRAW X8 -->
<svg xmlns="http://www.w3.org/2000/svg" xml:space="preserve" width="143px" version="1.1" style="shape-rendering:geometricPrecision; text-rendering:geometricPrecision; image-rendering:optimizeQuality; fill-rule:evenodd; clip-rule:evenodd"
viewBox="0 0 3200000 829988"
 xmlns:xlink="http://www.w3.org/1999/xlink">
 <defs>
  <style type="text/css">
   <![CDATA[
    .fil0 {fill:#2B2A29;fill-rule:nonzero}
   ]]>
  </style>
 </defs>
 <g id="Layer_x0020_1">
  <metadata id="CorelCorpID_0Corel-Layer"/>
  <path class="fil0" d="M2634993 40453c-37370,0 -71197,15130 -95658,39567 -24437,24461 -39567,58288 -39567,95658 0,37347 15142,71174 39591,95623 24461,24460 58288,39602 95634,39602 37382,0 71209,-15130 95623,-39555 24472,-24461 39602,-58288 39602,-95670 0,-37347 -15141,-71174 -39602,-95634 -24449,-24449 -58276,-39591 -95623,-39591zm-113280 21945c29020,-29008 69083,-46961 113280,-46961 44221,0 84296,17941 113292,46937 28996,28997 46949,69083 46949,113304 0,44173 -17941,84225 -46949,113245 -29067,29055 -69118,46996 -113292,46996 -44220,0 -84307,-17953 -113303,-46949 -28997,-28996 -46938,-69071 -46938,-113292 0,-44197 17953,-84260 46961,-113280z"/>
  <path class="fil0" d="M2772415 394325l-33236 0c-13618,11681 -29280,21130 -46370,27744 -18001,6969 -37536,10807 -57816,10807 -20279,0 -39815,-3838 -57827,-10807 -17090,-6614 -32740,-16063 -46370,-27744l-37807 0c-35918,0 -68599,14705 -92269,38374 -23669,23669 -38374,56351 -38374,92268l0 130643 540712 0 0 -130643c0,-35917 -14705,-68599 -38375,-92268 -23669,-23669 -56350,-38374 -92268,-38374zm-37913 -25016l37913 0c42804,0 81733,17516 109938,45721 28205,28204 45720,67134 45720,109937l0 155658 -590743 0 0 -155658c0,-42803 17516,-81733 45721,-109937 28205,-28205 67134,-45721 109938,-45721l47291 0 3591 3283c12260,11185 26587,20150 42272,26233 15059,5823 31547,9035 48850,9035 17304,0 33792,-3212 48839,-9035 15685,-6083 30012,-15048 42272,-26233l3602 -3283 4796 0z"/>
  <path class="fil0" d="M3171039 723570l-1074395 0 0 76336 1074395 0 0 -76336zm-1086903 -25015l1111919 0 0 126366 -1124427 0 0 -126366 12508 0z"/>
  <path class="fil0" d="M2812502 476955l-358454 0c-3485,0 -6674,1406 -8965,3673 -2315,2339 -3721,5528 -3721,9012l0 165970 383825 0 0 -165970c0,-3484 -1405,-6673 -3673,-8964 -2327,-2304 -5528,-3721 -9012,-3721zm-358454 -25016l358454 0c10335,0 19748,4252 26587,11067 6862,6886 11114,16300 11114,26634l0 190985 -433856 0 0 -190985c0,-10334 4252,-19748 11067,-26587 6885,-6862 16299,-11114 26634,-11114z"/>
  <path class="fil0" d="M2636139 564570c-4630,0 -8823,1854 -11823,4830 -3024,3048 -4878,7241 -4878,11871 0,4618 1878,8811 4878,11811 2976,3011 7181,4878 11823,4878 4630,0 8811,-1855 11811,-4831 3024,-3047 4878,-7228 4878,-11858 0,-4642 -1866,-8847 -4854,-11847 -3024,-2976 -7217,-4854 -11835,-4854zm-29469 -12768c7571,-7559 18000,-12248 29469,-12248 11504,0 21945,4689 29480,12224 7536,7595 12225,18024 12225,29493 0,11456 -4689,21886 -12225,29433 -7594,7583 -18023,12272 -29480,12272 -11469,0 -21898,-4689 -29445,-12225 -7583,-7535 -12272,-17976 -12272,-29480 0,-11469 4689,-21898 12248,-29469z"/>
  <path class="fil0" d="M955599 379077c-5315,-4394 -6059,-12272 -1665,-17587 4394,-5315 12272,-6059 17587,-1665l56622 46949c5315,4393 6059,12271 1665,17586 -2468,2989 -6035,4524 -9626,4524l-552357 24c-6898,0 -12508,-5611 -12508,-12508 0,-6898 5610,-12508 12508,-12508l517703 0 -29929 -24815z"/>
  <path class="fil0" d="M516475 359825c5315,-4394 13193,-3650 17587,1665 4393,5315 3649,13193 -1666,17587l-29917 24815 517691 0c6898,0 12508,5610 12508,12508 0,6897 -5610,12508 -12508,12508l-552345 0c-3590,-24 -7157,-1559 -9626,-4548 -4394,-5315 -3650,-13193 1665,-17586l56611 -46949z"/>
  <path class="fil0" d="M971521 472975c-5315,4393 -13193,3649 -17587,-1666 -4394,-5315 -3650,-13193 1665,-17586l29929 -24815 -517703 0c-6898,0 -12508,-5611 -12508,-12508 0,-6898 5610,-12508 12508,-12508l552357 0c3591,23 7158,1559 9626,4547 4394,5315 3650,13193 -1665,17587l-56622 46949z"/>
  <path class="fil0" d="M532396 453723c5315,4393 6059,12271 1666,17586 -4394,5315 -12272,6059 -17587,1666l-56611 -46949c-5315,-4394 -6059,-12272 -1665,-17587 2469,-2988 6036,-4524 9626,-4524l552345 -23c6898,0 12508,5610 12508,12508 0,6897 -5610,12508 -12508,12508l-517691 0 29917 24815z"/>
  <path class="fil0" d="M1220959 479471c0,-7784 1878,-13146 5634,-16099 3756,-2952 10204,-4429 19323,-4429 10464,0 17574,1406 21330,4229 3756,2811 5634,7570 5634,14279 0,9118 3756,16299 11268,21532 7512,5232 17705,7842 30579,7842 15024,0 25961,-3413 32799,-10252 6839,-6850 10264,-17917 10264,-33201l0 -7653c0,-25489 -14764,-38221 -44268,-38221 -10193,0 -15295,-6850 -15295,-20528 0,-13677 5161,-20527 15555,-20527 11740,0 20799,-2610 27166,-7772 6378,-5232 9590,-15697 9590,-31465 0,-23468 -11799,-35208 -35409,-35208 -23882,0 -35812,8917 -35812,26834 0,13347 -8315,19985 -24956,19985 -11268,0 -18579,-1548 -21934,-4559 -3342,-3095 -5019,-9060 -5019,-17847 0,-7783 1464,-15555 4417,-23209 2953,-7712 7583,-15153 13890,-22464 6307,-7241 15496,-13146 27567,-17776 12071,-4559 26150,-6839 42248,-6839 56870,0 85312,24083 85312,72308 0,16027 -2752,29976 -8315,41846 -5563,11941 -13347,20115 -23339,24686 27295,10724 40913,30980 40913,60756l0 7653c0,30579 -8917,53115 -26763,67607 -17835,14480 -41115,21721 -69816,21721 -30319,0 -53327,-7512 -69012,-22536 -15697,-15024 -23551,-31925 -23551,-50693zm213284 45874c0,-7512 2551,-13961 7583,-19323 5032,-5362 11126,-8043 18378,-8043 7240,0 13406,2610 18579,7842 5161,5233 7772,11611 7772,19123 0,4559 -7371,24141 -22134,58748 -2138,4559 -5764,6838 -10867,6838 -4015,0 -7913,-1275 -11669,-3826 -3756,-2540 -5634,-5835 -5634,-9851 0,-1878 543,-3756 1618,-5634l9248 -21330c-8586,-5363 -12874,-13548 -12874,-24544zm84509 -64795l0 -112277c0,-31925 8787,-55264 26362,-70016 17575,-14752 41114,-22134 70618,-22134 29788,0 52524,7441 68209,22335 15697,14894 23552,31996 23552,51307 0,8056 -1949,13689 -5835,16902 -3898,3224 -10134,4831 -18721,4831 -18236,0 -27366,-6579 -27366,-19725 0,-9118 -3957,-16358 -11870,-21720 -7913,-5374 -17634,-8055 -29173,-8055 -29245,0 -43867,15425 -43867,46275l0 43867c11540,-13678 29386,-20528 53528,-20528 25217,0 45402,6449 60567,19323 15154,12874 22737,34205 22737,63981l0 5634c0,31925 -8528,55264 -25560,70027 -17031,14752 -39909,22123 -68610,22123 -28701,0 -51638,-7371 -68811,-22123 -17174,-14763 -25760,-38102 -25760,-70027zm51909 4098c0,31311 14221,47008 42662,47008 27898,0 41847,-15697 41847,-47008l0 -5374c0,-31051 -14079,-46607 -42249,-46607 -28169,0 -42260,14280 -42260,42922l0 9059zm251116 69142l0 -158552c0,-4831 2338,-8717 7039,-11669 4689,-2953 10925,-4429 18709,-4429 6437,0 11870,1476 16299,4500 4429,2952 6638,6909 6638,11728l0 12213c11539,-20587 29244,-30851 53126,-30851 11268,0 21390,3685 30378,11126 8989,7453 15626,17315 19914,29445 6708,-13205 15496,-23339 26362,-30248 10866,-6909 22335,-10323 34406,-10323 19323,0 36083,7370 50303,22134 14221,14752 21331,34607 21331,59552l0 95374c0,4028 -2622,7784 -7854,11268 -5233,3484 -11327,5232 -18308,5232 -6708,0 -12673,-1748 -17905,-5232 -5232,-3484 -7843,-7240 -7843,-11197l0 -95174c0,-11197 -3224,-20126 -9661,-26622 -6437,-6579 -14091,-9862 -22937,-9862 -8587,0 -16028,3283 -22335,9862 -6307,6496 -9461,15284 -9461,26291l0 95906c0,5292 -2551,9319 -7641,12001 -5103,2681 -11268,4027 -18508,4027 -6709,0 -12686,-1405 -17918,-4228 -5220,-2811 -7842,-6768 -7842,-11800l0 -95575c0,-10665 -3284,-19382 -9863,-26020 -6567,-6708 -14279,-10063 -23138,-10063 -8586,0 -15956,3225 -22134,9662 -6165,6366 -9248,15224 -9248,26421l0 95174c0,4016 -2622,7713 -7854,11197 -5232,3484 -11327,5232 -18307,5232 -7240,0 -13347,-1677 -18307,-5031 -4961,-3355 -7441,-7170 -7441,-11469z"/>
  <path class="fil0" d="M16441 3130l126320 0c6897,0 12507,5610 12507,12508l0 798712c0,6898 -5610,12508 -12507,12508l-126320 0c-6898,0 -12508,-5610 -12508,-12508l0 -798712c0,-6898 5610,-12508 12508,-12508zm113812 25016l-101304 0 0 773697 101304 0 0 -773697z"/>
  <path class="fil0" d="M91394 15638c0,-6898 5610,-12508 12508,-12508 6898,0 12508,5610 12508,12508l0 798712c0,6898 -5610,12508 -12508,12508 -6898,0 -12508,-5610 -12508,-12508l0 -798712z"/>
  <path class="fil0" d="M230411 205312c-17422,2492 -12579,27047 2645,24874l49725 -5291c17421,-2492 12579,-27048 -2646,-24874l-49724 5291zm1792780 -165898c17421,-2493 12579,-27048 -2646,-24875l-49736 5304c-17421,2492 -12579,27047 2646,24874l49736 -5303zm-124335 13263c17421,-2492 12579,-27047 -2646,-24874l-49725 5303c-17421,2493 -12578,27048 2646,24875l49725 -5304zm-124324 13264c17422,-2492 12579,-27047 -2645,-24874l-49725 5303c-17421,2492 -12579,27048 2646,24874l49724 -5303zm-124323 13264c17421,-2492 12579,-27047 -2646,-24874l-49724 5303c-17422,2492 -12579,27048 2645,24874l49725 -5303zm-124312 13252c17422,-2492 12579,-27047 -2645,-24874l-49725 5303c-17421,2492 -12579,27048 2646,24874l49724 -5303zm-124311 13252c17421,-2492 12578,-27047 -2646,-24874l-49725 5303c-17421,2492 -12579,27048 2646,24874l49725 -5303zm-124312 13252c17421,-2492 12579,-27047 -2646,-24874l-49724 5303c-17422,2492 -12579,27048 2645,24874l49725 -5303zm-124312 13252c17422,-2492 12579,-27047 -2645,-24874l-49725 5291c-17421,2493 -12579,27048 2646,24875l49724 -5292zm-124311 13240c17421,-2492 12579,-27047 -2646,-24874l-49725 5292c-17421,2492 -12578,27047 2646,24874l49725 -5292zm-124312 13241c17421,-2492 12579,-27048 -2646,-24874l-49724 5291c-17422,2492 -12579,27047 2645,24874l49725 -5291zm-124312 13240c17422,-2492 12579,-27047 -2645,-24874l-49725 5291c-17421,2492 -12579,27048 2646,24874l49724 -5291zm-124311 13240c17421,-2492 12579,-27047 -2646,-24874l-49725 5291c-17421,2493 -12578,27048 2646,24875l49725 -5292zm-124312 13240c17422,-2492 12579,-27047 -2645,-24874l-49725 5292c-17421,2492 -12579,27047 2646,24874l49724 -5292zm-124311 13241c17421,-2493 12578,-27048 -2646,-24875l-49725 5292c-17421,2492 -12579,27047 2646,24874l49725 -5291z"/>
  <path class="fil0" d="M231474 611472c-15071,-2150 -20091,22370 -2528,24874l49748 5043c15071,2150 20091,-22370 2528,-24874l-49748 -5043zm1788575 206481c15071,2149 20091,-22370 2528,-24874l-49772 -5055c-15071,-2150 -20091,22370 -2528,24874l49772 5055zm-124418 -12638c15071,2150 20091,-22370 2528,-24874l-49760 -5055c-15071,-2150 -20091,22370 -2528,24874l49760 5055zm-124394 -12626c15071,2150 20091,-22370 2528,-24874l-49760 -5044c-15071,-2149 -20091,22371 -2528,24875l49760 5043zm-124394 -12614c15071,2149 20090,-22370 2527,-24874l-49760 -5044c-15071,-2149 -20090,22370 -2527,24874l49760 5044zm-124395 -12615c15071,2150 20091,-22370 2528,-24874l-49748 -5043c-15071,-2150 -20091,22370 -2528,24874l49748 5043zm-124382 -12614c15071,2150 20091,-22370 2528,-24874l-49749 -5043c-15071,-2150 -20090,22370 -2527,24874l49748 5043zm-124383 -12614c15071,2150 20091,-22370 2528,-24874l-49748 -5043c-15071,-2150 -20091,22370 -2528,24874l49748 5043zm-124382 -12614c15071,2149 20091,-22370 2528,-24874l-49749 -5044c-15071,-2149 -20090,22370 -2527,24874l49748 5044zm-124383 -12614c15071,2149 20091,-22371 2528,-24875l-49748 -5043c-15071,-2150 -20091,22370 -2528,24874l49748 5044zm-124370 -12603c15071,2150 20090,-22370 2527,-24874l-49748 -5043c-15071,-2150 -20091,22370 -2528,24874l49749 5043zm-124371 -12602c15071,2149 20091,-22371 2528,-24874l-49749 -5044c-15071,-2149 -20090,22370 -2527,24874l49748 5044zm-124371 -12603c15071,2150 20091,-22370 2528,-24874l-49748 -5043c-15071,-2150 -20091,22370 -2528,24874l49748 5043zm-124370 -12602c15071,2149 20090,-22370 2527,-24874l-49748 -5044c-15071,-2149 -20091,22371 -2528,24874l49749 5044zm-124371 -12603c15071,2150 20091,-22370 2528,-24874l-49749 -5043c-15071,-2150 -20090,22370 -2527,24874l49748 5043z"/>
 </g>
</svg>
