<?xml version="1.0" encoding="UTF-8"?>
<!DOCTYPE svg PUBLIC "-//W3C//DTD SVG 1.1//EN" "http://www.w3.org/Graphics/SVG/1.1/DTD/svg11.dtd">
<!-- Creator: CorelDRAW X8 -->
<svg xmlns="http://www.w3.org/2000/svg" xml:space="preserve" width="143px" version="1.1" style="shape-rendering:geometricPrecision; text-rendering:geometricPrecision; image-rendering:optimizeQuality; fill-rule:evenodd; clip-rule:evenodd"
viewBox="0 0 3200000 609995"
 xmlns:xlink="http://www.w3.org/1999/xlink">
 <defs>
  <style type="text/css">
   <![CDATA[
    .fil0 {fill:#2B2A29;fill-rule:nonzero}
   ]]>
  </style>
 </defs>
 <g id="Layer_x0020_1">
  <metadata id="CorelCorpID_0Corel-Layer"/>
  <g id="_2594450725552">
   <path class="fil0" d="M92906 1996l0 25016 -75012 0 0 -25016 75012 0zm-87520 51674l25016 0 0 75012 -25016 0 0 -75012zm0 125020l25016 0 0 75012 -25016 0 0 -75012zm0 125020l25016 0 0 75012 -25016 0 0 -75012zm0 125020l25016 0 0 75013 -25016 0 0 -75013zm0 125021l25016 0 0 29232 20764 0 0 25016 -45780 0 0 -54248zm95788 54248l0 -25016 75012 0 0 25016 -75012 0zm125020 0l0 -25016 75012 0 0 25016 -75012 0zm125020 0l0 -25016 75013 0 0 25016 -75013 0zm125021 0l0 -25016 75012 0 0 25016 -75012 0zm125020 0l0 -25016 75012 0 0 25016 -75012 0zm125020 0l0 -25016 75012 0 0 25016 -75012 0zm125021 0l0 -25016 75012 0 0 25016 -75012 0zm125020 0l0 -25016 75012 0 0 25016 -75012 0zm125020 0l0 -25016 75012 0 0 25016 -75012 0zm125020 0l0 -25016 75013 0 0 25016 -75013 0zm125021 0l0 -25016 75012 0 0 25016 -75012 0zm125020 0l0 -25016 75012 0 0 25016 -75012 0zm125020 0l0 -25016 75013 0 0 25016 -75013 0zm125021 0l0 -25016 75012 0 0 25016 -75012 0zm125020 0l0 -25016 75012 0 0 25016 -75012 0zm125020 0l0 -25016 75012 0 0 25016 -75012 0zm125021 0l0 -25016 75012 0 0 25016 -75012 0zm125020 0l0 -25016 75012 0 0 25016 -75012 0zm125020 0l0 -25016 75012 0 0 25016 -75012 0zm125020 0l0 -25016 75013 0 0 25016 -75013 0zm125021 0l0 -25016 75012 0 0 25016 -75012 0zm125020 0l0 -25016 75012 0 0 25016 -75012 0zm125020 0l0 -25016 75013 0 0 25016 -75013 0zm125021 0l0 -25016 75012 0 0 25016 -75012 0zm125020 0l0 -25016 75012 0 0 25016 -75012 0zm92941 -57107l-25016 0 0 -75012 25016 0 0 75012zm0 -125020l-25016 0 0 -75012 25016 0 0 75012zm0 -125020l-25016 0 0 -75012 25016 0 0 75012zm0 -125020l-25016 0 0 -75013 25016 0 0 75013zm0 -125021l-25016 0 0 -23799 -26197 0 0 -25016 51213 0 0 48815zm-101221 -48815l0 25016 -75012 0 0 -25016 75012 0zm-125020 0l0 25016 -75012 0 0 -25016 75012 0zm-125020 0l0 25016 -75012 0 0 -25016 75012 0zm-125021 0l0 25016 -75012 0 0 -25016 75012 0zm-125020 0l0 25016 -75012 0 0 -25016 75012 0zm-125020 0l0 25016 -75012 0 0 -25016 75012 0zm-125020 0l0 25016 -75013 0 0 -25016 75013 0zm-125021 0l0 25016 -75012 0 0 -25016 75012 0zm-125020 0l0 25016 -75012 0 0 -25016 75012 0zm-125020 0l0 25016 -75013 0 0 -25016 75013 0zm-125021 0l0 25016 -75012 0 0 -25016 75012 0zm-125020 0l0 25016 -75012 0 0 -25016 75012 0zm-125020 0l0 25016 -75012 0 0 -25016 75012 0zm-125021 0l0 25016 -75012 0 0 -25016 75012 0zm-125020 0l0 25016 -75000 0 0 -25016 75000 0zm-125008 0l0 25016 -75013 0 0 -25016 75013 0zm-125021 0l0 25016 -75012 0 0 -25016 75012 0zm-125020 0l0 25016 -75012 0 0 -25016 75012 0zm-125020 0l0 25016 -75012 0 0 -25016 75012 0zm-125021 0l0 25016 -75012 0 0 -25016 75012 0zm-125020 0l0 25016 -75012 0 0 -25016 75012 0zm-125020 0l0 25016 -75012 0 0 -25016 75012 0zm-125020 0l0 25016 -75013 0 0 -25016 75013 0zm-125021 0l0 25016 -75012 0 0 -25016 75012 0z"/>
   <path class="fil0" d="M982269 444404l0 -39426c0,-11941 4039,-23728 12200,-35397 8150,-11658 17989,-22170 29658,-31678l38752 -28110c12744,-9567 23599,-19618 32563,-30201 8965,-10583 13418,-21166 13418,-31807 0,-9508 -3177,-17941 -9579,-25288 -6331,-7346 -15768,-10984 -28240,-10984 -10583,0 -19276,3035 -26020,9165 -6815,6071 -10181,15237 -10181,27508 0,5256 -2422,9910 -7347,13878 -4925,4051 -11457,6071 -19748,6071 -15638,0 -23457,-9437 -23457,-28311 0,-22110 8563,-40040 25678,-53788 17126,-13760 37346,-20634 60673,-20634 24603,0 45827,7347 63827,22111 18000,14693 26965,34252 26965,58654 0,16311 -4382,31606 -13205,45897 -8764,14221 -19488,26363 -32221,36272 -12673,9910 -25346,19075 -37889,27496 -12603,8434 -23256,16855 -32091,25276 -8823,8433 -13205,16453 -13205,24071l0 9768 112772 0c4311,0 8221,2232 11599,6673 3366,4453 5055,9780 5055,15981 0,6200 -1618,11657 -4925,16382 -3307,4712 -7075,7074 -11327,7074l-141154 0c-4985,0 -10040,-1618 -15024,-4854 -5055,-3307 -7547,-7217 -7547,-11799z"/>
   <path id="1" class="fil0" d="M1253652 376396c0,-3508 945,-6945 2823,-10453l95858 -186922c4311,-9095 11729,-13619 22241,-13619 5397,0 11126,1961 17197,5870 6059,3910 9094,8693 9094,14363 0,1878 -673,4169 -2020,6874l-77657 155304 47327 0 0 -44493c0,-5657 2563,-9968 7677,-12945 5126,-2964 11327,-4441 18614,-4441 7276,0 13477,1477 18603,4441 5114,2977 7677,7288 7677,12945l0 44493 19016 0c5126,0 9165,2291 12130,6874 2964,4582 4452,10039 4452,16382 0,5799 -1689,11126 -5055,15768 -3378,4724 -7216,7086 -11527,7086l-19016 0 0 49808c0,5326 -2563,9578 -7677,12673 -5126,3106 -11327,4653 -18603,4653 -7016,0 -13146,-1547 -18402,-4653 -5267,-3095 -7889,-7347 -7889,-12673l0 -49808 -97076 0c-5114,0 -9366,-1618 -12732,-4795 -3378,-3165 -5055,-7406 -5055,-12732z"/>
   <path id="2" class="fil0" d="M1475688 370868l0 -112843c0,-32091 8563,-55548 25689,-70371 17115,-14834 40099,-22252 68954,-22252 28854,0 51909,7418 69165,22252 17256,14823 25878,38280 25878,70371l0 112843c0,32079 -8622,55547 -25878,70370 -17256,14835 -40311,22241 -69165,22241 -28855,0 -51839,-7406 -68954,-22241 -17126,-14823 -25689,-38291 -25689,-70370zm52583 0c0,31004 14020,46512 42060,46512 28311,0 42472,-15508 42472,-46512l0 -112843c0,-31004 -14161,-46512 -42472,-46512 -28040,0 -42060,15508 -42060,46512l0 112843zm28713 -39366c-3508,-3839 -5256,-8835 -5256,-15036 0,-6201 1689,-11185 5055,-14894 3366,-3708 8020,-5527 13949,-5527 5669,0 10181,1819 13547,5527 3378,3709 5056,8693 5056,14894 0,6201 -1678,11197 -5056,15036 -3366,3838 -7878,5799 -13547,5799 -5657,0 -10240,-1961 -13748,-5799z"/>
   <path id="3" class="fil0" d="M1702579 370868l0 -112843c0,-32091 8563,-55548 25689,-70371 17115,-14834 40099,-22252 68953,-22252 28855,0 51910,7418 69166,22252 17256,14823 25878,38280 25878,70371l0 112843c0,32079 -8622,55547 -25878,70370 -17256,14835 -40311,22241 -69166,22241 -28854,0 -51838,-7406 -68953,-22241 -17126,-14823 -25689,-38291 -25689,-70370zm52583 0c0,31004 14020,46512 42059,46512 28312,0 42473,-15508 42473,-46512l0 -112843c0,-31004 -14161,-46512 -42473,-46512 -28039,0 -42059,15508 -42059,46512l0 112843zm28713 -39366c-3508,-3839 -5256,-8835 -5256,-15036 0,-6201 1689,-11185 5055,-14894 3366,-3708 8020,-5527 13949,-5527 5669,0 10181,1819 13547,5527 3378,3709 5055,8693 5055,14894 0,6201 -1677,11197 -5055,15036 -3366,3838 -7878,5799 -13547,5799 -5657,0 -10240,-1961 -13748,-5799z"/>
   <path id="4" class="fil0" d="M2011982 444475l0 -159355c0,-4855 2363,-8764 7075,-11729 4725,-2964 10996,-4441 18815,-4441 6473,0 11929,1477 16382,4512 4441,2965 6673,6945 6673,11799l0 12260c11587,-20693 29386,-31004 53387,-31004 11315,0 21496,3709 30531,11197 9036,7476 15709,17386 20020,29587 6744,-13276 15567,-23457 26492,-30402 10914,-6945 22441,-10382 34583,-10382 19406,0 36260,7417 50552,22240 14291,14835 21437,34784 21437,59859l0 95859c0,4039 -2634,7819 -7890,11326 -5256,3508 -11386,5256 -18402,5256 -6744,0 -12732,-1748 -18000,-5256 -5256,-3507 -7878,-7287 -7878,-11256l0 -95657c0,-11256 -3236,-20221 -9709,-26753 -6472,-6614 -14161,-9909 -23055,-9909 -8634,0 -16110,3295 -22453,9909 -6330,6532 -9496,15367 -9496,26422l0 96390c0,5327 -2563,9366 -7689,12071 -5126,2693 -11327,4039 -18602,4039 -6744,0 -12744,-1417 -18000,-4252 -5256,-2822 -7890,-6803 -7890,-11858l0 -96059c0,-10713 -3295,-19477 -9910,-26150 -6602,-6744 -14350,-10110 -23256,-10110 -8622,0 -16039,3236 -22240,9708 -6201,6402 -9307,15296 -9307,26552l0 95657c0,4040 -2622,7749 -7878,11256 -5256,3508 -11398,5256 -18402,5256 -7287,0 -13417,-1689 -18401,-5055 -4997,-3366 -7489,-7216 -7489,-11527z"/>
   <path id="5" class="fil0" d="M2323606 250501l0 -19712c0,-5965 2020,-11871 6106,-17693 4075,-5835 9000,-11091 14823,-15851l19382 -14055c6378,-4784 11799,-9803 16288,-15095 4476,-5291 6697,-10582 6697,-15909 0,-4748 -1583,-8965 -4784,-12638 -3165,-3673 -7890,-5492 -14114,-5492 -5292,0 -9650,1512 -13016,4582 -3402,3036 -5091,7619 -5091,13749 0,2633 -1216,4960 -3673,6944 -2457,2020 -5728,3036 -9874,3036 -7819,0 -11728,-4724 -11728,-14162 0,-11055 4275,-20019 12838,-26893 8563,-6874 18674,-10311 30331,-10311 12307,0 22925,3673 31926,11055 9000,7346 13476,17114 13476,29327 0,8149 -2185,15803 -6602,22949 -4382,7110 -9745,13181 -16111,18130 -6342,4960 -12673,9543 -18945,13748 -6295,4216 -11622,8433 -16039,12649 -4418,4205 -6603,8221 -6603,12024l0 4890 56387 0c2149,0 4110,1110 5799,3342 1677,2221 2527,4878 2527,7985 0,3094 -815,5834 -2468,8185 -1654,2362 -3532,3543 -5658,3543l-70583 0c-2492,0 -5019,-803 -7512,-2421 -2527,-1654 -3779,-3614 -3779,-5906z"/>
  </g>
 </g>
</svg>
