<?xml version="1.0" encoding="UTF-8"?>
<!DOCTYPE svg PUBLIC "-//W3C//DTD SVG 1.1//EN" "http://www.w3.org/Graphics/SVG/1.1/DTD/svg11.dtd">
<!-- Creator: CorelDRAW X8 -->
<svg xmlns="http://www.w3.org/2000/svg" xml:space="preserve" width="52px" height="64px" version="1.1" style="shape-rendering:geometricPrecision; text-rendering:geometricPrecision; image-rendering:optimizeQuality; fill-rule:evenodd; clip-rule:evenodd"
viewBox="0 0 520000 640002"
 xmlns:xlink="http://www.w3.org/1999/xlink">
 <defs>
  <style type="text/css">
   <![CDATA[
    .fil0 {fill:#2B2A29;fill-rule:nonzero}
   ]]>
  </style>
 </defs>
 <g id="Layer_x0020_1">
  <metadata id="CorelCorpID_0Corel-Layer"/>
  <g id="_2024016240864">
   <path class="fil0" d="M260000 139006c33910,0 64631,13760 86871,36001 22241,22240 36001,52961 36001,86883 0,33910 -13760,64631 -36001,86871 -22240,22241 -52961,36001 -86871,36001 -33922,0 -64643,-13760 -86883,-36001 -22241,-22240 -36001,-52961 -36001,-86871 0,-33922 13760,-64643 36001,-86883 22240,-22241 52961,-36001 86883,-36001zm69202 53670c-17693,-17693 -42178,-28654 -69202,-28654 -27036,0 -51520,10961 -69214,28654 -17693,17693 -28654,42178 -28654,69214 0,27024 10961,51508 28654,69202 17694,17693 42178,28654 69214,28654 27024,0 51509,-10961 69202,-28654 17693,-17694 28654,-42178 28654,-69202 0,-27036 -10961,-51521 -28654,-69214z"/>
   <path class="fil0" d="M260000 2669c71564,0 136384,29032 183286,75935 46903,46902 75934,111722 75934,183286 0,65670 -29008,133750 -70914,194885 -51225,74717 -122104,139490 -182459,176553l-6485 3993 -6508 -3993c-60993,-37441 -131045,-101659 -181597,-175797 -41764,-61230 -70477,-129487 -70477,-195641 0,-71564 29031,-136384 75934,-183286 46902,-46903 111722,-75935 183286,-75935zm165617 93604c-42367,-42367 -100939,-68588 -165617,-68588 -64678,0 -123250,26221 -165617,68588 -42366,42367 -68587,100939 -68587,165617 0,60709 26917,124183 66060,181585 46748,68564 110718,128199 167494,164495 56293,-36036 120994,-96155 168357,-165251 39296,-57343 66497,-120639 66497,-180829 0,-64678 -26221,-123250 -68587,-165617z"/>
  </g>
 </g>
</svg>
