<?xml version="1.0" encoding="UTF-8"?>
<!DOCTYPE svg PUBLIC "-//W3C//DTD SVG 1.1//EN" "http://www.w3.org/Graphics/SVG/1.1/DTD/svg11.dtd">
<!-- Creator: CorelDRAW X8 -->
<svg xmlns="http://www.w3.org/2000/svg" xml:space="preserve" width="132px" height="132px" version="1.1" style="shape-rendering:geometricPrecision; text-rendering:geometricPrecision; image-rendering:optimizeQuality; fill-rule:evenodd; clip-rule:evenodd"
viewBox="0 0 1320000 1320000"
 xmlns:xlink="http://www.w3.org/1999/xlink">
 <defs>
  <style type="text/css">
   <![CDATA[
    .fil0 {fill:#C5C6C6;fill-rule:nonzero}
    .fil1 {fill:#2B2A29;fill-rule:nonzero}
   ]]>
  </style>
 </defs>
 <g id="Layer_x0020_1">
  <metadata id="CorelCorpID_0Corel-Layer"/>
  <g id="_3050987471888">
   <path class="fil0" d="M660000 1654c181775,0 346388,73702 465516,192830 119128,119128 192830,283741 192830,465516 0,181775 -73702,346388 -192830,465516 -119128,119128 -283741,192830 -465516,192830 -181775,0 -346388,-73702 -465516,-192830 -119128,-119128 -192830,-283741 -192830,-465516 0,-181775 73702,-346388 192830,-465516 119128,-119128 283741,-192830 465516,-192830zm453729 204617c-116105,-116104 -276537,-187940 -453729,-187940 -177192,0 -337624,71836 -453729,187940 -116104,116105 -187940,276537 -187940,453729 0,177192 71836,337624 187940,453729 116105,116104 276537,187940 453729,187940 177192,0 337624,-71836 453729,-187940 116104,-116105 187940,-276537 187940,-453729 0,-177192 -71836,-337624 -187940,-453729z"/>
   <path class="fil1" d="M728600 407133c37111,0 70784,15083 95139,39450 24367,24319 39438,57981 39438,95139 0,37123 -15071,70773 -39414,95128 -24390,24378 -58041,39450 -95163,39450 -37158,0 -70821,-15072 -95163,-39415 -24343,-24378 -39426,-58052 -39426,-95163 0,-37122 15071,-70784 39414,-95139 24390,-24379 58052,-39450 95175,-39450zm83375 51190c-21307,-21331 -50788,-34512 -83375,-34512 -32576,0 -62080,13205 -83399,34512 -21308,21319 -34513,50824 -34513,83399 0,32587 13181,62068 34501,83376 21354,21319 50847,34524 83411,34524 32563,0 62068,-13205 83387,-34512 21307,-21320 34512,-50824 34512,-83388 0,-32563 -13205,-62056 -34524,-83399z"/>
   <path class="fil1" d="M728600 407133c37122,0 70773,15071 95127,39414 24379,24343 39450,58005 39450,95163 0,18296 -3697,35789 -10347,51757 -6898,16560 -17020,31442 -29551,43855l-2091 2079 -11492 945 -8670 236c-47292,0 -90143,-19181 -121124,-50162 -30993,-30993 -50174,-73832 -50174,-121124l248 -8681 945 -11469 2067 -2103c12425,-12531 27319,-22677 43867,-29563 15957,-6650 33449,-10347 51745,-10347zm83375 51190c-21307,-21307 -50812,-34512 -83375,-34512 -16111,0 -31454,3224 -45367,9024 -13571,5657 -25902,13807 -36355,23858l-473 12603c0,42697 17316,81367 45285,109336 27969,27969 66639,45273 109336,45273l7819 -165 4784 -308c10039,-10441 18189,-22772 23847,-36343 5799,-13913 9023,-29256 9023,-45379 0,-32563 -13205,-62056 -34524,-83387z"/>
   <path class="fil1" d="M576447 599113l-152943 183535 1937 28937 -26847 26836c5067,6366 9484,11492 13984,16027 4264,4288 8693,8138 13902,12130l27001 -26988 28878 1925 181881 -151562c-20965,-7039 -39851,-19287 -55040,-35067 -15000,-15591 -26434,-34713 -32753,-55773zm-167849 175503l177464 -212945 2905 18001c3910,24213 15567,46371 32209,63686 16643,17292 38340,29752 62328,34524l17068 3402c-70939,59044 -142031,117982 -212744,177286l-27958 -1878 -31665 31666 -5729 -4086c-8599,-6118 -15260,-11646 -21685,-18107 -6355,-6413 -12426,-13689 -19867,-23363l-4465 -5811 31867 -31878 -1866 -27922 2138 -2575z"/>
   <polygon class="fil1" points="423763,957005 854377,957005 854377,973683 423763,973683 "/>
   <path class="fil1" d="M431594 973683c-17020,0 -32445,-6922 -43595,-18071 -11162,-11197 -18071,-26623 -18071,-43596 0,-8610 1795,-16854 4996,-24307 3319,-7737 8209,-14682 14221,-20398l11457 12047c-4382,4158 -7961,9237 -10371,14894 -2326,5433 -3626,11457 -3626,17764 0,12438 5032,23705 13146,31808 8162,8126 19418,13181 31843,13181l0 16678z"/>
  </g>
 </g>
</svg>
