<?xml version="1.0" encoding="UTF-8"?>
<!DOCTYPE svg PUBLIC "-//W3C//DTD SVG 1.1//EN" "http://www.w3.org/Graphics/SVG/1.1/DTD/svg11.dtd">
<!-- Creator: CorelDRAW X8 -->
<svg xmlns="http://www.w3.org/2000/svg" xml:space="preserve" width="143px" height="136px" version="1.1" style="shape-rendering:geometricPrecision; text-rendering:geometricPrecision; image-rendering:optimizeQuality; fill-rule:evenodd; clip-rule:evenodd"
viewBox="0 0 1430000 1360007"
 xmlns:xlink="http://www.w3.org/1999/xlink">
 <defs>
  <style type="text/css">
   <![CDATA[
    .fil0 {fill:#2B2A29;fill-rule:nonzero}
   ]]>
  </style>
 </defs>
 <g id="Layer_x0020_1">
  <metadata id="CorelCorpID_0Corel-Layer"/>
  <g id="_2024018956912">
   <polygon class="fil0" points="-1429,1342538 1431417,1342538 1431417,1359216 -1429,1359216 "/>
   <path class="fil0" d="M155636 588479c0,-64713 26244,-123320 68646,-165722 42402,-42402 101009,-68647 165722,-68647 64702,0 123309,26245 165711,68647 42402,42402 68646,101020 68646,165722l-16677 0c0,-60107 -24378,-114556 -63757,-153935 -39378,-39378 -93816,-63756 -153923,-63756 -60118,0 -114556,24378 -153934,63756 -39379,39379 -63757,93816 -63757,153935l-16677 0z"/>
   <path class="fil0" d="M204864 378878c0,-64713 26245,-123320 68647,-165722 42402,-42402 101009,-68647 165722,-68647 64702,0 123309,26245 165711,68647 42402,42402 68646,101021 68646,165722l-16677 0c0,-60107 -24378,-114556 -63757,-153935 -39378,-39378 -93816,-63756 -153923,-63756 -60119,0 -114556,24378 -153935,63756 -39378,39379 -63756,93816 -63756,153935l-16678 0z"/>
   <path class="fil0" d="M466363 235160c0,-64713 26245,-123320 68647,-165722 42402,-42402 101009,-68647 165722,-68647 64702,0 123309,26245 165711,68647 42402,42402 68646,101021 68646,165722l-16677 0c0,-60107 -24379,-114556 -63757,-153935 -39378,-39378 -93816,-63756 -153923,-63756 -60119,0 -114556,24378 -153935,63756 -39378,39379 -63756,93816 -63756,153935l-16678 0z"/>
   <path class="fil0" d="M1229151 588479c0,-60119 -24378,-114556 -63756,-153935 -39379,-39378 -93828,-63756 -153935,-63756 -60107,0 -114545,24378 -153923,63756 -39378,39379 -63757,93828 -63757,153935l-16677 0c0,-64702 26244,-123320 68646,-165722 42403,-42402 101009,-68647 165711,-68647 64701,0 123320,26245 165722,68647 42402,42402 68647,101009 68647,165722l-16678 0z"/>
   <path class="fil0" d="M1179922 378878c0,-60119 -24378,-114556 -63756,-153935 -39379,-39378 -93828,-63756 -153935,-63756 -60107,0 -114544,24378 -153923,63756 -39378,39379 -63756,93828 -63756,153935l-16678 0c0,-64701 26245,-123320 68647,-165722 42402,-42402 101009,-68647 165710,-68647 64702,0 123320,26245 165722,68647 42402,42402 68647,101009 68647,165722l-16678 0z"/>
   <polygon class="fil0" points="624361,672787 624361,1350877 607684,1350877 607684,672787 "/>
   <polygon class="fil0" points="793780,672787 793780,1350877 777103,1350877 777103,672787 "/>
   <polygon class="fil0" points="744552,378878 744552,1350877 727874,1350877 727874,378878 "/>
   <polygon class="fil0" points="673590,378878 673590,1350877 656913,1350877 656913,378878 "/>
   <polygon class="fil0" points="221554,378878 221554,573502 204876,573502 204876,378878 "/>
   <polygon class="fil0" points="1196588,378878 1196588,573502 1179911,573502 1179911,378878 "/>
   <polygon class="fil0" points="172325,588479 172325,783103 155647,783103 155647,588479 "/>
   <polygon class="fil0" points="1245817,588479 1245817,783103 1229140,783103 1229140,588479 "/>
   <polygon class="fil0" points="483053,235160 483053,429784 466375,429784 466375,235160 "/>
   <polygon class="fil0" points="935089,235160 935089,429784 918412,429784 918412,235160 "/>
   <polygon class="fil0" points="172325,805733 172325,851655 155647,851655 155647,805733 "/>
   <polygon class="fil0" points="172325,943534 172325,989456 155647,989456 155647,943534 "/>
   <polygon class="fil0" points="221554,596133 221554,642054 204876,642054 204876,596133 "/>
   <polygon class="fil0" points="483053,467509 483053,513419 466375,513419 466375,467509 "/>
   <polygon class="fil0" points="935089,467509 935089,513419 918412,513419 918412,467509 "/>
   <polygon class="fil0" points="1196588,596133 1196588,642054 1179911,642054 1179911,596133 "/>
   <polygon class="fil0" points="1245817,805733 1245817,851655 1229140,851655 1229140,805733 "/>
   <polygon class="fil0" points="710583,93450 710583,1141430 693905,1141430 693905,93450 "/>
   <path class="fil0" d="M774103 29918c-17540,0 -33437,7122 -44918,18602 -11480,11481 -18602,27390 -18602,44930l-16678 0c0,-22134 8989,-42213 23493,-56717 14504,-14504 34571,-23493 56705,-23493l0 16678z"/>
   <path class="fil0" d="M630373 13240c22111,0 42166,8989 56682,23493 14539,14504 23528,34583 23528,56717l-16678 0c0,-17540 -7122,-33449 -18602,-44930 -11469,-11480 -27379,-18602 -44930,-18602l0 -16678z"/>
   <polygon class="fil0" points="221554,734181 221554,780103 204876,780103 204876,734181 "/>
   <polygon class="fil0" points="483053,605204 483053,651113 466375,651113 466375,605204 "/>
   <polygon class="fil0" points="935089,605204 935089,651113 918412,651113 918412,605204 "/>
   <polygon class="fil0" points="1196588,733898 1196588,779820 1179911,779820 1179911,733898 "/>
   <polygon class="fil0" points="1245817,943534 1245817,989456 1229140,989456 1229140,943534 "/>
   <polygon class="fil0" points="172325,1134272 172325,1279065 155647,1279065 155647,1134272 "/>
   <polygon class="fil0" points="221554,924896 221554,1069689 204876,1069689 204876,924896 "/>
   <polygon class="fil0" points="483053,795895 483053,940688 466375,940688 466375,795895 "/>
   <polygon class="fil0" points="935077,795895 935077,940688 918400,940688 918400,795895 "/>
   <polygon class="fil0" points="1196576,924613 1196576,1069405 1179899,1069405 1179899,924613 "/>
   <polygon class="fil0" points="1245817,1134261 1245817,1279053 1229140,1279053 1229140,1134261 "/>
  </g>
 </g>
</svg>
