<?xml version="1.0" encoding="UTF-8"?>
<!DOCTYPE svg PUBLIC "-//W3C//DTD SVG 1.1//EN" "http://www.w3.org/Graphics/SVG/1.1/DTD/svg11.dtd">
<!-- Creator: CorelDRAW X8 -->
<svg xmlns="http://www.w3.org/2000/svg" xml:space="preserve" width="132px" height="132px" version="1.1" style="shape-rendering:geometricPrecision; text-rendering:geometricPrecision; image-rendering:optimizeQuality; fill-rule:evenodd; clip-rule:evenodd"
viewBox="0 0 1320000 1320000"
 xmlns:xlink="http://www.w3.org/1999/xlink">
 <defs>
  <style type="text/css">
   <![CDATA[
    .fil0 {fill:#C5C6C6;fill-rule:nonzero}
    .fil1 {fill:#2B2A29;fill-rule:nonzero}
   ]]>
  </style>
 </defs>
 <g id="Layer_x0020_1">
  <metadata id="CorelCorpID_0Corel-Layer"/>
  <g id="_3050987473232">
   <path class="fil0" d="M660000 1654c181775,0 346388,73702 465516,192830 119128,119128 192830,283741 192830,465516 0,181775 -73702,346388 -192830,465516 -119128,119128 -283741,192830 -465516,192830 -181775,0 -346388,-73702 -465516,-192830 -119128,-119128 -192830,-283741 -192830,-465516 0,-181775 73702,-346388 192830,-465516 119128,-119128 283741,-192830 465516,-192830zm453729 204617c-116105,-116104 -276537,-187940 -453729,-187940 -177192,0 -337624,71836 -453729,187940 -116104,116105 -187940,276537 -187940,453729 0,177192 71836,337624 187940,453729 116105,116104 276537,187940 453729,187940 177192,0 337624,-71836 453729,-187940 116104,-116105 187940,-276537 187940,-453729 0,-177192 -71836,-337624 -187940,-453729z"/>
   <path class="fil1" d="M272214 481650l-36 96439c-236,5162 2079,9733 5386,13489 5669,6437 13961,10606 18768,12177l5764 1902 0 294099c0,922 378,1772 968,2363 603,578 1453,968 2363,968 921,0 1771,-378 2362,-968 591,-591 968,-1441 968,-2363l0 -294088 5800 -1878c6012,-1937 11256,-5858 15248,-11020 4075,-5279 6886,-11893 7949,-19110l-94 -91939 16606 0c24,22099 2965,75167 24,93640 -1394,10370 -5410,19913 -11327,27567 -4713,6095 -10678,11055 -17528,14363l0 282465c0,5457 -2256,10465 -5870,14103 -3674,3650 -8681,5905 -14138,5905 -5504,0 -10524,-2255 -14138,-5870 -3615,-3673 -5871,-8681 -5871,-14138l0 -282477c-6425,-2965 -14397,-7914 -20350,-14693 -5870,-6674 -9981,-15107 -9496,-25276l35 -95660 16607 0z"/>
   <path class="fil1" d="M660000 412531c78096,0 148845,31678 200035,82868 51178,51213 82868,121962 82868,200035 0,78096 -31678,148845 -82868,200035 -51190,51190 -121939,82867 -200035,82867 -78072,0 -148822,-31689 -200011,-82891 -51214,-51166 -82892,-121915 -82892,-200011 0,-78061 31678,-148822 82868,-200000 51213,-51225 121975,-82903 200035,-82903zm188259 94655c-48178,-48166 -114746,-77978 -188259,-77978 -73537,0 -140117,29800 -188247,77943 -48178,48166 -77978,114746 -77978,188283 0,73513 29811,140081 77978,188247 48130,48178 114710,77978 188247,77978 73513,0 140081,-29812 188247,-77978 48167,-48166 77978,-114734 77978,-188247 0,-73537 -29800,-140117 -77966,-188248z"/>
   <path class="fil1" d="M660000 477965c60037,0 114427,24355 153770,63698 39344,39343 63698,93734 63698,153771 0,60036 -24354,114427 -63698,153770 -39343,39343 -93733,63698 -153770,63698 -60048,0 -114427,-24355 -153770,-63698 -39344,-39343 -63698,-93734 -63698,-153770 0,-60049 24354,-114428 63698,-153771 39343,-39343 93722,-63698 153770,-63698zm141983 75486c-36320,-36320 -86541,-58808 -141983,-58808 -55454,0 -105663,22488 -141983,58808 -36319,36319 -58808,86529 -58808,141983 0,55442 22489,105663 58808,141983 36320,36319 86529,58808 141983,58808 55442,0 105663,-22489 141983,-58808 36319,-36320 58808,-86541 58808,-141983 0,-55442 -22489,-105664 -58808,-141983z"/>
   <path class="fil1" d="M1016806 695457l0 210016c0,5504 -2256,10524 -5871,14138 -3614,3614 -8610,5870 -14126,5870 -5457,0 -10512,-2268 -14126,-5905 -3626,-3591 -5882,-8587 -5882,-14103l0 -442803 9803 1760c17611,3165 31206,9071 40595,18980 9627,10146 14552,23989 14552,42757l0 133207c0,27296 -12756,32812 -24945,36083zm-16678 210016l0 -222866 9260 -2410c7276,-1842 15685,-3968 15685,-20823l0 -133207c0,-14256 -3354,-24378 -9921,-31300 -5102,-5386 -12366,-9213 -21674,-11858l0 422464c0,898 390,1748 981,2339 578,614 1429,992 2338,992 910,0 1760,-390 2351,-981 590,-590 980,-1441 980,-2350z"/>
   <path class="fil1" d="M551278 875862c4830,-14032 13429,-20847 21425,-27201 7158,-5634 13666,-10807 13193,-22902 -567,-14292 4985,-15378 13382,-16973 2812,-531 6662,-1275 10335,-7488 685,-1158 721,-2150 744,-3213 130,-5138 331,-11244 11174,-25075 1181,-1512 2031,-3685 2315,-6047 224,-1890 94,-3851 -508,-5564 -543,-1606 -1524,-3082 -3000,-4228 -1772,-1370 -4358,-2409 -7878,-2846 -38103,-4701 -37867,-7205 -36757,-18627 166,-1736 414,-4476 -5646,-10535 -755,-721 -7358,-3414 -14799,-6426 -9343,-3779 -19926,-8067 -26410,-12402 -1713,-1145 -8788,-2598 -15862,-2078 -2162,153 -4217,543 -5800,1193 -1039,437 -1890,992 -2315,1630l-118 248c2032,1842 4418,4429 5953,7523 3685,7418 3437,16064 -9921,22690 -957,472 -1548,1488 -1808,2764 -519,2527 -165,5905 721,9531 1004,4122 2740,8516 4736,12567 3685,7441 7335,13300 8422,13524l4618 969 1535 4464c614,1796 1701,2575 2800,3355 6508,4618 13571,9661 13571,48308 0,8823 11,17658 2905,25004l-15496 6048c-4075,-10335 -4087,-20706 -4087,-30958 0,-30213 -3401,-32658 -6531,-34866 -2800,-1985 -5528,-3934 -7737,-8694 -4984,-3862 -10713,-11338 -14906,-19807 -2480,-5020 -4653,-10583 -5964,-15945 -1441,-5870 -1914,-11729 -862,-16831 1287,-6225 4630,-11327 10736,-14339 1618,-803 2504,-142 2362,-437 -827,-1677 -3413,-3579 -4240,-4181l-3555 -2811 -272 -3650c-401,-5551 874,-10075 3295,-13701 2445,-3602 5859,-6130 9780,-7760 3414,-1406 7193,-2173 10949,-2445 10548,-768 22725,2480 26327,4890 4878,3260 14729,7252 23434,10772 9118,3697 17173,6945 20315,10087 11575,11622 10867,19051 10406,23858 -165,1772 236,-2173 22229,532 6744,827 12083,3130 16122,6295 4134,3248 6874,7359 8421,11788 1524,4287 1890,8823 1371,13098 -650,5292 -2741,10394 -5764,14268 -7453,9508 -7583,12650 -7654,15249 -83,3390 -177,6437 -3036,11268 -7464,12626 -15508,14220 -21425,15354 791,20457 -8870,28158 -19465,36556 -6130,4890 -12744,10146 -16004,19607l-15756 -5410z"/>
   <path class="fil1" d="M451827 678272l1465 -236c4783,-508 12035,2338 18071,6413 5953,3992 11480,9638 13110,14871l555 2645c48,473 638,-425 1583,-47 815,307 1665,543 2362,579l957 -59 413 -2870c709,-5623 721,-5788 -7063,-14422l-6921 -7488c-5480,-5800 -7547,-7961 -5918,-13264 1489,-4843 3804,-5386 7501,-6414 2563,-708 8740,-2445 15331,-18508l1098 -2776c7288,-17941 10784,-26528 32174,-36189 4240,-1914 7630,-3851 10724,-5599 5835,-3307 10890,-6153 18391,-8020 -2138,-6200 -804,-11775 8964,-15165 886,-307 674,968 532,1559 992,-2811 1771,-4536 6508,-5540 1594,-318 3295,-259 7441,-118l4205 142c767,24 1488,-130 2008,-402 -308,-1003 -1241,-2385 -2953,-4098l-1784 -1784 -661 -3437c-106,-767 -425,-2763 -1028,-3720 -366,-532 414,1275 -614,1949l-3626 2374 -4051 -1666c-3839,-1582 -5575,-4263 -7500,-7122l-1878 -2575c-343,-248 -2611,2233 -11682,14847 -11563,16063 -15118,20410 -22973,14800 -2551,-1808 -3354,-3839 -4429,-6615 -956,-2456 -2598,-6638 -7618,-9827l-1500 -23 0 -16678c1228,0 2398,12 4016,236 1925,272 3791,863 5657,1985 10134,6142 13158,13713 14906,18213 1323,283 -4972,-7016 -1523,-11800 17043,-23681 27295,-24036 34854,-18602 2186,1570 3662,3389 4926,5185 8220,-2788 13547,1004 16961,6212 1830,2871 2728,6024 3189,8245 2858,3307 4594,6602 5421,9685 1122,4110 662,7913 -839,11173 -1464,3201 -3956,5729 -6933,7430 -3201,1795 -7063,2728 -10831,2622l-5976 -260 -2043 1252c1051,1453 1866,3083 2137,5279 756,6036 -1913,10229 -10795,11257 -9437,1098 -14516,3968 -20682,7464 -3472,1961 -7252,4122 -12094,6307 -15296,6910 -17989,13512 -23575,27284l-1123 2764c-5563,13500 -11752,20339 -16949,24001l3933 4299c12839,14256 12816,14599 11150,27626l-201 1512c-885,7370 -4570,11882 -9389,14233 -2930,1370 -6048,1866 -9095,1712 -2811,-141 -5610,-862 -8067,-1913 -5882,-2575 -10701,-7571 -11504,-13075 -579,-1429 -3331,-3780 -6485,-5894 -2905,-2008 -5657,-3496 -6791,-3638l-189 36 -3260 -16347zm113341 -104955c-83,248 -119,378 -36,142l36 -142zm-28938 -9909l1110 732c-673,-449 -2232,-1559 -1110,-732z"/>
   <path class="fil1" d="M855240 634039c-2292,0 -5304,1618 -8587,3366 -12355,6614 -27402,14670 -57497,-6685l-248 -177c-6626,-4205 -26446,-5374 -46371,-3756 -19607,1594 -38375,5740 -42863,12059l-130 165c-1323,1878 -3177,3260 -5634,5091 -3756,2776 -9673,7146 -12284,12626 -4701,9839 -3685,11398 -2799,12674 3012,4228 5646,7996 1441,17516 -862,1890 -1866,2811 -3142,3968l-1334 1288c-1158,1299 -1890,4228 6307,12118 4842,4654 12638,4169 22087,3567 15839,-1004 35256,-2244 58855,13914 13394,9165 12603,26929 11752,45190 -543,11988 -1110,24319 2847,31252 2043,3496 4039,9213 6354,15792 4512,12850 10536,29941 14020,29941l0 16678c-15248,0 -23492,-23469 -29693,-41092 -2055,-5811 -3839,-10878 -5055,-12992 -6414,-11209 -5729,-25949 -5079,-40288 626,-13583 1228,-26823 -4524,-30757 -18862,-12909 -35162,-11882 -48438,-11031 -13429,850 -24520,1547 -34654,-8197 -19240,-18508 -12378,-29765 -6661,-35717l1417 -1359 -83 -236c-3461,-4984 -7535,-10795 1335,-29386 4394,-9201 12402,-15119 17469,-18851 1216,-874 1512,-638 1830,-1110l225 -331c7654,-10807 31359,-17162 55135,-19099 23268,-1878 47623,331 57107,6697l449 307c21697,15390 31784,9993 40040,5575 5268,-2811 10087,-5398 16406,-5398l0 16678z"/>
   <path class="fil1" d="M611515 486694c1831,1157 4949,2220 8173,3307 2800,945 5705,1937 8705,3283 12260,5540 21402,14375 12839,35765l2646 -2894c5834,-6957 13524,-5055 22724,-2764 9875,2445 23245,5752 28584,-15437l-83 -12414 16607 -141 23 2492c47,4464 166,11846 -413,14138 -9402,37252 -31985,31630 -48686,27496 -3732,-921 -5162,-3744 -6000,-2728 -6272,7547 -12532,10866 -17693,11445 -3308,331 -6308,-331 -8823,-1772 -2575,-1488 -4548,-3720 -5764,-6413 -1890,-4169 -1937,-9603 425,-14811 4878,-10784 1559,-14646 -3189,-16796 -2067,-933 -4713,-1831 -7240,-2693 -4217,-1417 -8292,-2799 -11764,-5008l8929 -14055z"/>
   <polygon class="fil1" points="298517,481698 298517,578928 281840,578928 281840,481698 "/>
   <polygon class="fil1" points="327337,481639 327337,578810 310659,578810 310659,481639 "/>
  </g>
 </g>
</svg>
