<?xml version="1.0" encoding="UTF-8"?>
<!DOCTYPE svg PUBLIC "-//W3C//DTD SVG 1.1//EN" "http://www.w3.org/Graphics/SVG/1.1/DTD/svg11.dtd">
<!-- Creator: CorelDRAW X8 -->
<svg xmlns="http://www.w3.org/2000/svg" xml:space="preserve" width="132px" height="132px" version="1.1" style="shape-rendering:geometricPrecision; text-rendering:geometricPrecision; image-rendering:optimizeQuality; fill-rule:evenodd; clip-rule:evenodd"
viewBox="0 0 1320000 1320000"
 xmlns:xlink="http://www.w3.org/1999/xlink">
 <defs>
  <style type="text/css">
   <![CDATA[
    .fil0 {fill:#C5C6C6;fill-rule:nonzero}
    .fil1 {fill:#2B2A29;fill-rule:nonzero}
   ]]>
  </style>
 </defs>
 <g id="Layer_x0020_1">
  <metadata id="CorelCorpID_0Corel-Layer"/>
  <g id="_3050926687888">
   <path class="fil0" d="M660000 1654c181775,0 346388,73702 465516,192830 119128,119128 192830,283741 192830,465516 0,181775 -73702,346388 -192830,465516 -119128,119128 -283741,192830 -465516,192830 -181775,0 -346388,-73702 -465516,-192830 -119128,-119128 -192830,-283741 -192830,-465516 0,-181775 73702,-346388 192830,-465516 119128,-119128 283741,-192830 465516,-192830zm453729 204617c-116105,-116104 -276537,-187940 -453729,-187940 -177192,0 -337624,71836 -453729,187940 -116104,116105 -187940,276537 -187940,453729 0,177192 71836,337624 187940,453729 116105,116104 276537,187940 453729,187940 177192,0 337624,-71836 453729,-187940 116104,-116105 187940,-276537 187940,-453729 0,-177192 -71836,-337624 -187940,-453729z"/>
   <path class="fil1" d="M933158 407003l0 469993c-91076,38552 -182223,77057 -273158,115927 -90935,-38870 -182082,-77375 -273158,-115927l0 -478331 546316 0 0 8338zm-16677 458985l0 -450646 -512962 0 0 450646 256481 108852 256481 -108852z"/>
   <polygon class="fil1" points="850066,840263 660000,920934 469934,840263 476453,824956 660000,902851 843547,824956 "/>
   <polygon class="fil1" points="587869,782518 587869,514450 604546,514450 604546,782518 "/>
   <path class="fil1" d="M675130 506111c23410,0 44670,9520 60060,24899 15414,15425 24934,36685 24934,60095 0,23434 -9532,44682 -24898,60060 -15414,15402 -36662,24934 -60096,24934l0 -16678c18863,0 35954,-7642 48308,-19973 12367,-12390 20008,-29480 20008,-48343 0,-18886 -7641,-35989 -19972,-48308 -12355,-12366 -29458,-20008 -48344,-20008l0 -16678z"/>
   <polygon class="fil1" points="675532,522789 587892,522789 587892,506111 675532,506111 "/>
   <polygon class="fil1" points="675626,676099 596208,676099 596208,659421 675626,659421 "/>
  </g>
 </g>
</svg>
