<?xml version="1.0" encoding="UTF-8"?>
<!DOCTYPE svg PUBLIC "-//W3C//DTD SVG 1.1//EN" "http://www.w3.org/Graphics/SVG/1.1/DTD/svg11.dtd">
<!-- Creator: CorelDRAW X8 -->
<svg xmlns="http://www.w3.org/2000/svg" xml:space="preserve" width="150px" height="136px" version="1.1" style="shape-rendering:geometricPrecision; text-rendering:geometricPrecision; image-rendering:optimizeQuality; fill-rule:evenodd; clip-rule:evenodd"
viewBox="0 0 1500000 1359992"
 xmlns:xlink="http://www.w3.org/1999/xlink">
 <defs>
  <style type="text/css">
   <![CDATA[
    .fil0 {fill:#2B2A29;fill-rule:nonzero}
   ]]>
  </style>
 </defs>
 <g id="Layer_x0020_1">
  <metadata id="CorelCorpID_0Corel-Layer"/>
  <g id="_2023917244176">
   <polygon class="fil0" points="1181,1345429 1434012,1345429 1434012,1362106 1181,1362106 "/>
   <path class="fil0" d="M1126429 1913l320528 185067 0 374882c-108319,62292 -216508,124890 -324674,187453 -108271,-62433 -216389,-125150 -324732,-187453l0 -374882c108201,-62527 216343,-125256 324732,-187452l4146 2385zm149835 105709l-154028 -88925 -308008 177850 0 355736 308008 177851 308044 -177851 0 -355736 -154016 -88925z"/>
   <path class="fil0" d="M1122260 -2126c103960,0 198118,42154 266256,110291 68126,68138 110291,162284 110291,266256 0,103961 -42165,198118 -110291,266256 -68138,68126 -162296,110292 -266256,110292 -103973,0 -198118,-42166 -266256,-110292 -68138,-68138 -110291,-162295 -110291,-266256 0,-103972 42153,-198118 110291,-266256 68138,-68137 162283,-110291 266256,-110291zm254468 122079c-65126,-65126 -155102,-105402 -254468,-105402 -99378,0 -189343,40276 -254469,105402 -65126,65126 -105401,155090 -105401,254468 0,99366 40275,189343 105401,254469 65115,65102 155091,105401 254469,105401 99366,0 189354,-40299 254468,-105401 65103,-65114 105402,-155103 105402,-254469 0,-99378 -40299,-189354 -105402,-254468z"/>
   <polygon class="fil0" points="1130598,9118 1130598,1248390 1113921,1248390 1113921,9118 "/>
   <polygon class="fil0" points="1442787,198957 1122260,384024 801756,198957 810024,184571 1122260,364819 1434449,184571 "/>
   <path class="fil0" d="M1442787 381614c-106830,61677 -213815,123154 -320527,185043 -106701,-61889 -213673,-123366 -320504,-185043l8268 -14386 312236 180260 312189 -180260 8338 14386z"/>
   <path class="fil0" d="M1275709 1320898c-18567,-20115 -41268,-36414 -66674,-47528 -24437,-10689 -51507,-16642 -80007,-16642l0 -16677c30767,0 60082,6461 86645,18083 27579,12059 52170,29716 72272,51496l-12236 11268z"/>
   <path class="fil0" d="M1287591 1309276c11870,11397 25948,20598 41480,26846 14929,5988 31311,9307 48484,9307l0 16677c-19264,0 -37736,-3756 -54673,-10559 -17539,-7051 -33413,-17433 -46819,-30295l11528 -11976z"/>
   <path class="fil0" d="M970110 1309630c20103,-21780 44693,-39437 72272,-51496 26563,-11622 55901,-18083 86646,-18083l0 16677c-28489,0 -55559,5953 -80008,16642 -25406,11114 -48107,27413 -66674,47528l-12236 -11268z"/>
   <path class="fil0" d="M981992 1321252c-13405,12862 -29279,23244 -46819,30295 -16937,6803 -35409,10559 -54673,10559l0 -16677c17173,0 33555,-3319 48484,-9307 15532,-6248 29610,-15449 41481,-26846l11527 11976z"/>
   <path class="fil0" d="M1071543 1259315c-21862,-31382 -47303,-56492 -75130,-73488 -26468,-16181 -55193,-25051 -85157,-25051l0 -16678c33094,0 64748,9756 93827,27532 29834,18224 56976,44941 80137,78189l-13677 9496z"/>
   <path class="fil0" d="M720638 1276028c23834,-41079 53043,-74422 85842,-97264 31996,-22288 67453,-34666 104776,-34666l0 16678c-33791,0 -66047,11303 -95280,31665 -30791,21449 -58334,52961 -80952,91925l-14386 -8338z"/>
   <path class="fil0" d="M734799 1284756c-15791,24153 -34606,43665 -55476,57024 -20469,13098 -42886,20326 -66402,20326l0 -16677c20256,0 39650,-6283 57425,-17657 18839,-12059 35977,-29894 50516,-52134l13937 9118z"/>
   <path class="fil0" d="M800634 1122886c-26799,-38858 -58524,-65587 -93165,-81898 -37536,-17681 -78662,-23232 -120792,-18945l-1630 -16535c45036,-4583 89126,1417 129508,20433 37217,17528 71209,46087 99756,87496l-13677 9449z"/>
   <path class="fil0" d="M385665 1188331c20457,-55914 48036,-97370 80115,-126721 35893,-32811 77338,-50445 120767,-56232l2150 16465c-40181,5350 -78543,21673 -111721,52003 -30153,27591 -56208,66874 -75696,120154l-15615 -5669z"/>
   <path class="fil0" d="M401280 1194035c-11304,30544 -22536,52371 -39863,67642 -17492,15414 -40606,23669 -75366,26776l-1441 -16536c30910,-2763 51083,-9767 65799,-22736 14859,-13098 24886,-32882 35256,-60886l15615 5740z"/>
   <path class="fil0" d="M143894 1348063c17256,-22193 38952,-38835 61098,-50823 28288,-15307 57579,-23079 79524,-25299l1630 16535c-20103,2032 -47067,9225 -73288,23410 -20244,10960 -40063,26149 -55807,46405l-13157 -10228z"/>
   <path class="fil0" d="M743504 1305555c23835,-41079 53043,-74421 85842,-97264 31997,-22287 67453,-34665 104776,-34665l0 16677c-33791,0 -66047,11303 -95279,31666 -30792,21448 -58335,52960 -80953,91925l-14386 -8339z"/>
   <path class="fil0" d="M997382 1330016c20102,-21780 44693,-39437 72272,-51496 26563,-11622 55901,-18083 86645,-18083l0 16677c-28488,0 -55559,5953 -80008,16642 -25405,11114 -48106,27413 -66673,47527l-12236 -11267z"/>
   <path class="fil0" d="M813154 1111783c6909,11315 16429,19394 27472,25075 11433,5894 24591,9319 38303,11150l-2149 16464c-15532,-2078 -30532,-6000 -43760,-12826 -13642,-7016 -25429,-17055 -34063,-31193l14197 -8670z"/>
   <path class="fil0" d="M414177 1215732c20457,-55913 48036,-97370 80114,-126720 35894,-32811 77339,-50445 120768,-56232l2150 16464c-40181,5350 -78544,21673 -111721,52004 -30153,27591 -56208,66874 -75697,120154l-15614 -5670z"/>
  </g>
 </g>
</svg>
