<?xml version="1.0" encoding="UTF-8"?>
<!DOCTYPE svg PUBLIC "-//W3C//DTD SVG 1.1//EN" "http://www.w3.org/Graphics/SVG/1.1/DTD/svg11.dtd">
<!-- Creator: CorelDRAW X8 -->
<svg xmlns="http://www.w3.org/2000/svg" xml:space="preserve" width="144px" height="149px" version="1.1" style="shape-rendering:geometricPrecision; text-rendering:geometricPrecision; image-rendering:optimizeQuality; fill-rule:evenodd; clip-rule:evenodd"
viewBox="0 0 1440000 1490009"
 xmlns:xlink="http://www.w3.org/1999/xlink">
 <defs>
  <style type="text/css">
   <![CDATA[
    .fil0 {fill:#2B2A29;fill-rule:nonzero}
   ]]>
  </style>
 </defs>
 <g id="Layer_x0020_1">
  <metadata id="CorelCorpID_0Corel-Layer"/>
  <g id="_2024016221184">
   <path class="fil0" d="M414727 9083l347888 200838 0 406436c-117451,67536 -234713,135439 -352022,203235 -117309,-67796 -234618,-135640 -352033,-203259l0 -406412 352033 -203224 4134 2386zm163538 113576l-167672 -96804 -335356 193633 0 387313 335356 193586 335344 -193609 0 -387290 -167672 -96829z"/>
   <path class="fil0" d="M410593 4784c112750,0 214858,45721 288737,119600 73891,73891 119613,175999 119613,288749 0,112750 -45722,214858 -119613,288737 -73879,73891 -175987,119612 -288737,119612 -112750,0 -214858,-45721 -288748,-119612 -73880,-73879 -119601,-175987 -119601,-288737 0,-112750 45721,-214858 119601,-288749 73890,-73879 175998,-119600 288748,-119600zm276950 131388c-70856,-70856 -168794,-114711 -276950,-114711 -108155,0 -206094,43843 -276961,114711 -70867,70867 -114710,168805 -114710,276961 0,108155 43855,206094 114710,276949 70867,70867 168806,114723 276961,114723 108156,0 206082,-43856 276950,-114723 70867,-70867 114722,-168794 114722,-276949 0,-108156 -43855,-206094 -114722,-276961z"/>
   <polygon class="fil0" points="418932,16276 418932,1476875 402255,1476875 402255,16276 "/>
   <polygon class="fil0" points="758446,221897 410593,422735 62765,221897 71033,207511 410593,403530 750107,207511 "/>
   <polygon class="fil0" points="758446,420326 410593,621164 62765,420326 71033,405940 410593,601959 750107,405940 "/>
   <polygon class="fil0" points="4902,1468536 1437756,1468536 1437756,1485213 4902,1485213 "/>
   <path class="fil0" d="M1088593 485937l242472 140010 0 284698 -246618 142396 -246666 -142396 0 -284698c82159,-47540 164342,-95151 246666,-142396l4146 2386zm110813 83175l-115006 -66391 -229941 132746 0 265646 229941 132746 229988 -132746 0 -265646 -114982 -66355z"/>
   <path class="fil0" d="M1084423 482606c78828,0 150286,31985 201972,83683 51733,51721 83718,123167 83718,202007 0,78828 -31985,150286 -83682,201972 -51722,51733 -123180,83718 -202008,83718 -78828,0 -150286,-31985 -201972,-83683 -51733,-51721 -83717,-123179 -83717,-202007 0,-78840 31984,-150286 83682,-201972 51721,-51733 123167,-83718 202007,-83718zm190232 95447c-48662,-48674 -115927,-78769 -190232,-78769 -74316,0 -141569,30095 -190219,78757 -48698,48686 -78793,115939 -78793,190255 0,74304 30095,141569 78757,190220 48686,48697 115951,78792 190255,78792 74305,0 141570,-30095 190220,-78757 48698,-48686 78793,-115951 78793,-190255 0,-74316 -30095,-141569 -78781,-190243z"/>
   <polygon class="fil0" points="1092762,493130 1092762,1476875 1076085,1476875 1076085,493130 "/>
   <path class="fil0" d="M1326884 637900c-80812,46666 -161743,93167 -242461,139987 -80729,-46820 -161648,-93332 -242472,-139987l8339 -14386 234133 135203 234122 -135203 8339 14386z"/>
   <path class="fil0" d="M1326884 775489c-80812,46654 -161743,93155 -242461,139975 -80718,-46820 -161624,-93321 -242437,-139975l8268 -14386 234169 135191 234122 -135191 8339 14386z"/>
  </g>
 </g>
</svg>
