<?xml version="1.0" encoding="UTF-8"?>
<!DOCTYPE svg PUBLIC "-//W3C//DTD SVG 1.1//EN" "http://www.w3.org/Graphics/SVG/1.1/DTD/svg11.dtd">
<!-- Creator: CorelDRAW X8 -->
<svg xmlns="http://www.w3.org/2000/svg" xml:space="preserve" width="132px" height="132px" version="1.1" style="shape-rendering:geometricPrecision; text-rendering:geometricPrecision; image-rendering:optimizeQuality; fill-rule:evenodd; clip-rule:evenodd"
viewBox="0 0 1320000 1320000"
 xmlns:xlink="http://www.w3.org/1999/xlink">
 <defs>
  <style type="text/css">
   <![CDATA[
    .fil1 {fill:#C5C6C6;fill-rule:nonzero}
    .fil0 {fill:#2B2A29;fill-rule:nonzero}
   ]]>
  </style>
 </defs>
 <g id="Layer_x0020_1">
  <metadata id="CorelCorpID_0Corel-Layer"/>
  <g id="_3050987506160">
   <path class="fil0" d="M453988 624165l420362 0 0 118915 -428700 0 0 -118915 8338 0zm403685 16677l-395346 0 0 85561 395346 0 0 -85561z"/>
   <path class="fil0" d="M430756 472012l-80541 0c-4110,0 -7855,1678 -10512,4347 -2705,2693 -4382,6437 -4382,10547l0 393444c0,4111 1677,7855 4346,10512 2693,2705 6438,4382 10548,4382l80541 0c4110,0 7854,-1677 10512,-4346 2705,-2693 4382,-6437 4382,-10548l0 -393444c0,-4110 -1677,-7854 -4347,-10512 -2693,-2704 -6437,-4382 -10547,-4382zm-80541 -16677l80541 0c8646,0 16535,3555 22264,9272 5752,5764 9307,13642 9307,22299l0 393444c0,8646 -3555,16536 -9272,22265 -5764,5752 -13653,9307 -22299,9307l-80541 0c-8658,0 -16536,-3555 -22264,-9272 -5752,-5764 -9308,-13654 -9308,-22300l0 -393444c0,-8657 3556,-16535 9272,-22264 5764,-5752 13642,-9307 22300,-9307z"/>
   <path class="fil0" d="M889244 455335l80541 0c8646,0 16536,3555 22264,9272 5752,5764 9308,13642 9308,22299l0 393444c0,8646 -3556,16536 -9272,22265 -5764,5752 -13654,9307 -22300,9307l-80541 0c-8657,0 -16535,-3555 -22264,-9272 -5752,-5764 -9307,-13654 -9307,-22300l0 -393444c0,-8657 3555,-16535 9272,-22264 5764,-5752 13642,-9307 22299,-9307zm80541 16677l-80541 0c-4110,0 -7854,1678 -10512,4347 -2705,2693 -4382,6437 -4382,10547l0 393444c0,4111 1677,7855 4347,10512 2693,2705 6437,4382 10547,4382l80541 0c4110,0 7855,-1677 10512,-4346 2705,-2693 4382,-6437 4382,-10548l0 -393444c0,-4110 -1677,-7854 -4346,-10512 -2693,-2704 -6438,-4382 -10548,-4382z"/>
   <path class="fil0" d="M318643 557856l-43229 0c-1594,0 -3059,662 -4110,1713 -1051,1051 -1724,2528 -1724,4110l0 239898c0,1583 673,3059 1724,4111 1051,1051 2516,1712 4110,1712l43229 0 0 -251544zm-43229 -16677c20044,0 40029,-1264 59907,1240l0 282088 -6910 1216 -3897 355 -49100 0c-6189,0 -11834,-2540 -15898,-6603 -4074,-4075 -6614,-9697 -6614,-15898l0 -239898c0,-6201 2540,-11823 6614,-15898 4064,-4063 9709,-6602 15898,-6602z"/>
   <path class="fil0" d="M995486 541179l49100 0c6189,0 11834,2539 15898,6602 4074,4075 6614,9697 6614,15898l0 239898c0,6201 -2540,11823 -6614,15898 -4064,4063 -9709,6603 -15898,6603l-49100 0 -3921 -378 -6874 -1229 0 -282040 10795 -1252zm49100 16677l-43218 0 0 251544 43218 0c1594,0 3059,-661 4110,-1712 1051,-1052 1724,-2528 1724,-4111l0 -239898c0,-1582 -673,-3059 -1724,-4110 -1051,-1051 -2516,-1713 -4110,-1713z"/>
   <path class="fil0" d="M251213 655571l-34760 0c-449,0 -874,201 -1181,508 -308,307 -508,732 -508,1181l0 52737c0,449 200,874 508,1181 271,319 720,508 1181,508l34760 0c461,0 898,-201 1193,-496 295,-295 496,-732 496,-1193l0 -52737c0,-461 -189,-910 -472,-1181 -343,-307 -768,-508 -1217,-508zm-34760 -16678l34760 0c5044,0 9650,2079 12969,5398 3307,3319 5398,7949 5398,12969l0 52737c0,5055 -2067,9662 -5386,12981 -3319,3318 -7926,5385 -12981,5385l-34760 0c-5020,0 -9650,-2090 -12957,-5421 -3331,-3295 -5410,-7902 -5410,-12945l0 -52737c0,-5044 2079,-9650 5398,-12969 3319,-3319 7925,-5398 12969,-5398z"/>
   <path class="fil0" d="M1068787 638893l34760 0c5044,0 9650,2079 12969,5398 3319,3319 5398,7925 5398,12969l0 52737c0,5032 -2067,9662 -5386,12981 -3355,3295 -7949,5385 -12981,5385l-34760 0c-5044,0 -9626,-2090 -12945,-5385 -3355,-3319 -5422,-7949 -5422,-12981l0 -52737c0,-5020 2079,-9650 5410,-12957 3307,-3331 7913,-5410 12957,-5410zm34760 16678l-34760 0c-449,0 -874,201 -1181,508 -319,271 -508,720 -508,1181l0 52737c0,461 201,898 496,1193 295,307 732,496 1193,496l34760 0c473,0 898,-189 1205,-484 284,-307 484,-744 484,-1205l0 -52737c0,-449 -200,-874 -508,-1181 -307,-307 -732,-508 -1181,-508z"/>
   <path class="fil1" d="M660000 1654c181775,0 346388,73702 465516,192830 119128,119128 192830,283741 192830,465516 0,181775 -73702,346388 -192830,465516 -119128,119128 -283741,192830 -465516,192830 -181775,0 -346388,-73702 -465516,-192830 -119128,-119128 -192830,-283741 -192830,-465516 0,-181775 73702,-346388 192830,-465516 119128,-119128 283741,-192830 465516,-192830zm453729 204617c-116105,-116104 -276537,-187940 -453729,-187940 -177192,0 -337624,71836 -453729,187940 -116104,116105 -187940,276537 -187940,453729 0,177192 71836,337624 187940,453729 116105,116104 276537,187940 453729,187940 177192,0 337624,-71836 453729,-187940 116104,-116105 187940,-276537 187940,-453729 0,-177192 -71836,-337624 -187940,-453729z"/>
  </g>
 </g>
</svg>
