<?xml version="1.0" encoding="UTF-8"?>
<!DOCTYPE svg PUBLIC "-//W3C//DTD SVG 1.1//EN" "http://www.w3.org/Graphics/SVG/1.1/DTD/svg11.dtd">
<!-- Creator: CorelDRAW X8 -->
<svg xmlns="http://www.w3.org/2000/svg" xml:space="preserve" width="143px" height="136px" version="1.1" style="shape-rendering:geometricPrecision; text-rendering:geometricPrecision; image-rendering:optimizeQuality; fill-rule:evenodd; clip-rule:evenodd"
viewBox="0 0 1430000 1360007"
 xmlns:xlink="http://www.w3.org/1999/xlink">
 <defs>
  <style type="text/css">
   <![CDATA[
    .fil0 {fill:#2B2A29;fill-rule:nonzero}
   ]]>
  </style>
 </defs>
 <g id="Layer_x0020_1">
  <metadata id="CorelCorpID_0Corel-Layer"/>
  <g id="_2024016225024">
   <polygon class="fil0" points="-1429,1338924 1431417,1338924 1431417,1355602 -1429,1355602 "/>
   <path class="fil0" d="M422898 541589c4619,-12650 11752,-23386 20469,-30898 8918,-7678 19512,-12130 30886,-12130l0 16677c-7252,0 -14126,2941 -20020,8020 -6590,5693 -12082,14020 -15720,24000l-15615 -5669z"/>
   <polygon class="fil0" points="474253,498561 955735,498561 955735,515238 474253,515238 471572,506935 "/>
   <polygon class="fil0" points="869029,527415 919699,527415 919699,544093 869029,544093 "/>
   <polygon class="fil0" points="789611,527415 840281,527415 840281,544093 789611,544093 "/>
   <polygon class="fil0" points="691484,527415 753552,527415 753552,544093 691484,544093 "/>
   <polygon class="fil0" points="591514,527415 661354,527415 661354,544093 591514,544093 "/>
   <polygon class="fil0" points="519407,527415 573266,527415 573266,544093 519407,544093 "/>
   <polygon class="fil0" points="440863,541565 94560,1350464 79253,1343944 425556,535045 "/>
   <path class="fil0" d="M465844 558160l-15213 28972 -14717 -7748 16772 -31949c6071,-11492 24012,-20020 36910,-20020l8811 0 0 16678 -8811 0c-9473,0 -19335,5657 -23752,14067zm-32623 69804l-11445 26811 -15307 -6520 11445 -26811 15307 6520zm-31831 74552l-33638 78733 -15307 -6520 33638 -78733 15307 6520zm-57603 134859l-50433 118076 -15308 -6519 50434 -118076 15307 6519zm-78166 183002l-43465 101742 -15307 -6520 43465 -101741 15307 6519zm-61170 143187l-18791 43997 -15308 -6520 18792 -43997 15307 6520zm-35233 82513l-40169 94016 -15308 -6519 40170 -94017 15307 6520z"/>
   <path class="fil0" d="M994086 545912c-3638,-9981 -11741,-16961 -18331,-22654 -5894,-5079 -12768,-8020 -20020,-8020l-3425 -8858 3425 -7819c11374,0 21957,4441 30886,12130 8717,7512 18461,16890 23079,29551l-15614 5670z"/>
   <path class="fil0" d="M973204 565849c-3674,-6945 -8410,-12626 -13796,-16441 -4783,-3390 -10181,-5315 -15839,-5315l0 -16678c9190,0 17859,3059 25477,8457 7500,5315 13996,12992 18874,22229l4760 11031 -19476 -3283z"/>
   <polygon class="fil0" points="1007610,535317 1352920,1343731 1337613,1350251 992302,541837 "/>
   <path class="fil0" d="M537809 869844c2929,-8067 7524,-14953 13146,-19807 5894,-5102 12957,-8055 20599,-8055l3165 8067 -3165 8610c-3449,0 -6815,1465 -9733,3980 -3508,3000 -6437,7489 -8398,12875l-15614 -5670z"/>
   <polygon class="fil0" points="571554,841982 858423,841982 860868,849895 858423,858659 571554,858659 "/>
   <polygon class="fil0" points="554746,872336 350449,1350629 335141,1344109 539439,865817 "/>
   <path class="fil0" d="M876553 875514c-1961,-5386 -4890,-9875 -8386,-12898 -2929,-2492 -6283,-3957 -9744,-3957l0 -16677c7642,0 14705,2953 20598,8019 5623,4890 10217,11776 13146,19843l-15614 5670z"/>
   <polygon class="fil0" points="890537,865817 1095107,1344735 1079799,1351255 875230,872336 "/>
   <path class="fil0" d="M988180 558691l11670 26989 -15237 6567 -11669 -26989 15236 -6567zm29398 68446l11457 26811 -15307 6520 -11457 -26811 15307 -6520zm31855 74552l33626 78745 -15307 6520 -33626 -78745 15307 -6520zm57603 134860l50422 118064 -15308 6520 -50421 -118065 15307 -6519zm78154 182990l43465 101741 -15307 6520 -43465 -101741 15307 -6520zm61170 143210l18792 43985 -15308 6520 -18791 -43985 15307 -6520zm35245 82489l40158 94017 -15308 6520 -40158 -94017 15308 -6520z"/>
   <path class="fil0" d="M560451 885565c3047,-3484 6591,-6295 10394,-8185 3921,-1949 8150,-3024 12567,-3024l2811 9142 -2811 7535c-1784,0 -3543,449 -5150,1252 -1913,945 -3720,2398 -5315,4217l-12496 -10937z"/>
   <path class="fil0" d="M583412 874356l30815 0 0 16677 -30815 0 0 -16677zm39555 0l32115 0 0 16677 -32115 0 0 -16677zm42438 0l86304 -130 17020 130 -71 16607 -16925 -130 -86328 200 0 -16677zm117545 0l55040 0 0 16677 -55040 0 0 -16677z"/>
   <path class="fil0" d="M568731 903081l-21201 49642 -15308 -6520 21201 -49642 15308 6520zm-32953 77174l-19406 45414 -15307 -6520 19405 -45414 15308 6520zm-33237 77788l-29079 68080 -15307 -6520 29079 -68080 15307 6520zm-45071 105521l-25064 58690 -15307 -6520 25063 -58690 15308 6520zm-35292 82607l-26185 61336 -15308 -6520 26186 -61336 15307 6520zm-38776 90793l-4701 11008 -15307 -6520 4701 -11008 15307 6520z"/>
   <path class="fil0" d="M859202 901687c-1854,-3520 -4240,-6378 -6886,-8256 -2149,-1524 -4594,-2398 -7086,-2398l0 -16677c6035,0 11740,2008 16724,5540 4784,3401 8906,8232 11965,14043l-14717 7748z"/>
   <path class="fil0" d="M876565 899845l21189 49642 -15307 6520 -21189 -49643 15307 -6519zm32965 77174l19382 45402 -15307 6519 -19383 -45402 15308 -6519zm33213 77776l29079 68103 -15308 6520 -29079 -68103 15308 -6520zm45071 105545l25075 58666 -15307 6519 -25075 -58666 15307 -6519zm35280 82583l26221 61347 -15308 6520 -26220 -61347 15307 -6520zm38800 90804l4700 10996 -15307 6520 -4701 -10996 15308 -6520z"/>
   <path class="fil0" d="M353555 75072c-6035,-16619 -15165,-30520 -26221,-40076 -10205,-8822 -22157,-13913 -34819,-13913l-4146 -7453 4146 -9224c16795,0 32457,6590 45686,18023 13193,11410 23964,27686 30968,46973l-15614 5670z"/>
   <path class="fil0" d="M1060807 69402c7004,-19287 17776,-35575 30969,-46961 13228,-11433 28866,-18035 45674,-18035l0 16677c-12674,0 -24603,5102 -34808,13925 -11055,9555 -20185,23457 -26221,40064l-15614 -5670z"/>
   <path class="fil0" d="M365095 59410l189403 444655 -15307 6519 -189404 -444654 15308 -6520zm201462 472966l134045 314649 -15307 6520 -134045 -314649 15307 -6520zm148030 347496l197943 464662 -15308 6520 -197943 -464662 15308 -6520z"/>
   <path class="fil0" d="M1080189 65930l-189285 444371 -15308 -6520 189286 -444371 15307 6520zm-201628 473355l-113541 266543 -20055 47634 -15307 -6449 20055 -47670 113541 -266577 15307 6519zm-148053 348134l-6886 15579 -15236 -6709 6886 -15579 15236 6709zm-23091 53091l-174746 410214 -15307 -6520 174746 -410213 15307 6519z"/>
   <polygon class="fil0" points="5598,4406 292527,4406 292527,21083 5598,21083 "/>
   <polygon class="fil0" points="1424378,21083 1137450,21083 1134520,13028 1137450,4406 1424378,4406 "/>
   <polygon class="fil0" points="5598,35611 292527,35611 292527,52288 5598,52288 "/>
   <polygon class="fil0" points="1137450,35611 1424378,35611 1424378,52288 1137450,52288 "/>
   <polygon class="fil0" points="53859,71351 41374,110588 25548,105580 38032,66343 "/>
   <polygon class="fil0" points="1189348,71351 1176863,110588 1161036,105580 1173521,66343 "/>
   <polygon class="fil0" points="171911,83304 171911,125068 155234,125068 155234,83304 "/>
   <polygon class="fil0" points="1307400,83304 1307400,125068 1290723,125068 1290723,83304 "/>
   <polygon class="fil0" points="92399,80977 86056,122104 69591,119576 75934,78450 "/>
   <polygon class="fil0" points="1227888,80977 1221545,122104 1205080,119576 1211423,78450 "/>
   <polygon class="fil0" points="209931,78473 216262,119600 199797,122080 193467,80954 "/>
   <polygon class="fil0" points="1345420,78473 1351751,119600 1335286,122080 1328956,80954 "/>
   <polygon class="fil0" points="247833,66343 260306,105580 244479,110588 232006,71351 "/>
   <polygon class="fil0" points="1383311,66343 1395795,105580 1379968,110588 1367484,71351 "/>
   <polygon class="fil0" points="130620,83304 130620,125068 113942,125068 113942,83304 "/>
   <polygon class="fil0" points="1266108,83304 1266108,125068 1249431,125068 1249431,83304 "/>
   <path class="fil0" d="M370138 141474l153994 361421 -15307 6520 -153994 -361421 15307 -6520zm167021 392000l133703 313634 -15308 6520 -133702 -313634 15307 -6520zm148431 348229l196821 462052 -15307 6520 -196821 -462053 15307 -6519z"/>
   <path class="fil0" d="M1075654 149789l-105628 247940 -49476 111721 -15237 -6708 49442 -111627 105591 -247846 15308 6520zm-168132 390217l-110588 264086 -20941 49158 -15307 -6520 20917 -49087 110564 -264015 15355 6378zm-145502 346043l-23327 54757 -15307 -6520 23327 -54757 15307 6520zm-38977 91513l-159214 373752 -15307 -6520 159214 -373752 15307 6520z"/>
  </g>
 </g>
</svg>
