<?xml version="1.0" encoding="UTF-8"?>
<!DOCTYPE svg PUBLIC "-//W3C//DTD SVG 1.1//EN" "http://www.w3.org/Graphics/SVG/1.1/DTD/svg11.dtd">
<!-- Creator: CorelDRAW X8 -->
<svg xmlns="http://www.w3.org/2000/svg" xml:space="preserve" width="132px" height="132px" version="1.1" style="shape-rendering:geometricPrecision; text-rendering:geometricPrecision; image-rendering:optimizeQuality; fill-rule:evenodd; clip-rule:evenodd"
viewBox="0 0 1320000 1320000"
 xmlns:xlink="http://www.w3.org/1999/xlink">
 <defs>
  <style type="text/css">
   <![CDATA[
    .fil0 {fill:#C5C6C6;fill-rule:nonzero}
    .fil1 {fill:#2B2A29;fill-rule:nonzero}
   ]]>
  </style>
 </defs>
 <g id="Layer_x0020_1">
  <metadata id="CorelCorpID_0Corel-Layer"/>
  <g id="_3051036074544">
   <path class="fil0" d="M660000 1654c181775,0 346388,73702 465516,192830 119128,119128 192830,283741 192830,465516 0,181775 -73702,346388 -192830,465516 -119128,119128 -283741,192830 -465516,192830 -181775,0 -346388,-73702 -465516,-192830 -119128,-119128 -192830,-283741 -192830,-465516 0,-181775 73702,-346388 192830,-465516 119128,-119128 283741,-192830 465516,-192830zm453729 204617c-116105,-116104 -276537,-187940 -453729,-187940 -177192,0 -337624,71836 -453729,187940 -116104,116105 -187940,276537 -187940,453729 0,177192 71836,337624 187940,453729 116105,116104 276537,187940 453729,187940 177192,0 337624,-71836 453729,-187940 116104,-116105 187940,-276537 187940,-453729 0,-177192 -71836,-337624 -187940,-453729z"/>
   <path class="fil1" d="M659988 536891c27284,0 52135,8410 70230,21969 18768,14068 30378,33721 30378,55572 0,21851 -11610,41505 -30378,55572 -18095,13559 -42946,21969 -70230,21969 -27284,0 -52135,-8410 -70229,-21969 -18768,-14067 -30379,-33721 -30379,-55572 0,-21851 11611,-41504 30379,-55572 18094,-13559 42945,-21969 70229,-21969zm60261 35245c-15284,-11457 -36591,-18567 -60261,-18567 -23670,0 -44977,7110 -60261,18567 -14610,10949 -23669,25938 -23669,42296 0,16359 9059,31347 23669,42296 15284,11457 36591,18568 60261,18568 23670,0 44977,-7111 60261,-18568 14611,-10949 23670,-25937 23670,-42296 0,-16358 -9059,-31347 -23670,-42296z"/>
   <path class="fil1" d="M857732 377145c21626,0 41233,8787 55406,22961 14174,14173 22961,33792 22961,55418 0,21626 -8787,41233 -22961,55406 -13216,13217 -31158,21745 -51036,22843l579 5339c484,5280 756,10394 756,15272 0,51154 -23387,97443 -61194,130880 -37513,33213 -89293,53777 -146365,53777 -57072,0 -108852,-20564 -146365,-53777 -37808,-33437 -61194,-79726 -61194,-130880 0,-5882 354,-11870 992,-17894l1170 -8729c-16938,-2917 -32033,-11291 -43371,-23220 -13371,-14056 -21579,-33072 -21579,-53966 0,-21626 8787,-41233 22961,-55407 14173,-14173 33780,-22961 55406,-22961 15213,0 29469,4371 41505,11906 9673,6095 17953,14221 24189,23764 16560,-11327 35103,-20480 55041,-26965 22240,-7228 46264,-11185 71245,-11185 27154,0 53150,4666 76997,13146 21390,7618 41044,18296 58218,31442 6094,-9839 14303,-18237 24000,-24532 12296,-7985 26954,-12638 42639,-12638zm43619 34748c-11150,-11150 -26587,-18071 -43619,-18071 -12414,0 -23953,3650 -33591,9898 -9981,6484 -17977,15791 -22855,26764l-4500 10134 -8457 -7181c-17457,-14823 -38138,-26753 -60981,-34879 -22040,-7831 -46170,-12153 -71470,-12153 -23268,0 -45556,3661 -66096,10334 -21378,6945 -40949,17162 -57875,29906l-8055 6071 -4418 -9094c-5078,-10465 -13051,-19288 -22807,-25406 -9473,-5894 -20693,-9331 -32729,-9331 -17032,0 -32469,6921 -43619,18071 -11150,11150 -18071,26587 -18071,43619 0,16488 6449,31477 16949,42509 10559,11114 25253,18319 41576,19122l9874 496 -2126 9603c-1169,5350 -2067,10677 -2634,15933 -555,5161 -850,10559 -850,16146 0,46217 21224,88112 55524,118455 34560,30591 82431,49524 135357,49524 52926,0 100797,-18933 135357,-49524 34299,-30343 55524,-72238 55524,-118455 0,-4890 -212,-9496 -614,-13784 -413,-4500 -1075,-9094 -1937,-13713l-1961 -10441c5150,296 10335,697 15485,803 17032,-35 32469,-6956 43619,-18106 11150,-11150 18071,-26587 18071,-43619 0,-17032 -6921,-32481 -18071,-43631z"/>
   <path class="fil1" d="M405881 818507c17623,-17623 42320,-24721 67962,-21934 25016,2729 51013,14930 72001,35918 20977,20977 33190,46985 35907,72002 2787,25618 -4288,50315 -21922,67950 -17622,17622 -42320,24721 -67962,21933 -25016,-2728 -51013,-14929 -72001,-35918 -20977,-20977 -33190,-46985 -35906,-72001 -2788,-25619 4287,-50316 21921,-67950zm66214 -5398c-20740,-2256 -40548,3307 -54426,17185 -13878,13879 -19430,33686 -17174,54415 2315,21343 12910,43713 31158,61961 18261,18261 40607,28844 61962,31170 20741,2256 40548,-3307 54426,-17185 13879,-13878 19430,-33686 17174,-54414 -2315,-21343 -12910,-43714 -31158,-61962 -18260,-18260 -40607,-28843 -61962,-31170z"/>
   <path class="fil1" d="M903040 830294c-13890,-13878 -33698,-19441 -54438,-17185 -21355,2327 -43702,12910 -61962,31170 -18248,18248 -28843,40619 -31158,61962 -2256,20728 3295,40536 17174,54414 13866,13878 33697,19441 54426,17185 21378,-2326 43701,-12909 61961,-31146 18261,-18284 28844,-40642 31159,-61985 2267,-20741 -3296,-40548 -17162,-54415zm-56186 -33721c25642,-2787 50339,4311 67962,21934 17634,17681 24720,42343 21921,67950 -2716,25016 -14917,51013 -35894,71989 -21048,21001 -47021,33213 -72013,35930 -25595,2788 -50281,-4299 -67915,-21922 -17681,-17646 -24756,-42343 -21969,-67961 2717,-25017 14930,-51025 35906,-72002 20989,-20988 46986,-33189 72002,-35918z"/>
   <path class="fil1" d="M519127 683741c-49288,45898 -59906,87533 -68906,122931l-685 2575 -16087 -4111 661 -2574c9532,-37560 20788,-81746 73679,-130987l11338 12166z"/>
   <path class="fil1" d="M575916 719517c-18083,17599 -28642,29953 -35989,44032 -7394,14162 -11941,30792 -17894,56753l-16205 -3709c6248,-27272 11103,-44894 19382,-60721 8327,-15934 19760,-29434 39107,-48261l11599 11906z"/>
   <path class="fil1" d="M805999 669709c26870,25016 42355,44186 52760,64418 10418,20245 15473,40973 21674,69439l-16276 3519c-5929,-27225 -10724,-46949 -20173,-65351 -9449,-18426 -23918,-36214 -49324,-59860l11339 -12165z"/>
   <path class="fil1" d="M750344 706572c20670,21272 31973,35079 39958,51095 7949,15969 12295,33402 19146,62139l-16205 3850c-6579,-27579 -10713,-44256 -17847,-58571 -7099,-14257 -17599,-26989 -36958,-46915l11906 -11598z"/>
   <path class="fil1" d="M651649 683634l0 -64725 -38859 -25335 7123 -7229c12260,-12425 24969,-19949 38870,-20646 13926,-697 28312,5433 43690,20245l7748 7464 -41894 25666 0 64560 -16678 0zm-12248 -92541l20717 13500 22501 -13783c-8386,-6225 -15969,-8859 -22985,-8504 -6756,342 -13465,3460 -20233,8787z"/>
   <path class="fil1" d="M564518 952293c35658,21980 68363,31925 99451,31205 30980,-721 60757,-12095 90627,-32670l9449 13677c-32516,22406 -65257,34796 -99675,35600 -34323,803 -70040,-9934 -108569,-33686l8717 -14126z"/>
   <path class="fil1" d="M600377 523131c6957,0 13500,1973 19087,5386 5728,3496 10429,8575 13512,14611l4146 8102 -8445 3390c-8764,3532 -16997,7772 -24485,12556 -7453,4771 -14268,10157 -20221,16004l-6626 6508 -5740 -7323c-2457,-3142 -4453,-6756 -5800,-10642 -1322,-3827 -2043,-7866 -2043,-11977 0,-10098 4110,-19276 10725,-25890 6614,-6614 15791,-10725 25890,-10725zm10417 19583c-3000,-1842 -6578,-2905 -10417,-2905 -5504,0 -10512,2244 -14103,5835 -3590,3590 -5834,8598 -5834,14102 0,1370 129,2693 366,3945 4523,-3744 9354,-7264 14457,-10524 5362,-3425 11055,-6602 17008,-9460l-1477 -993z"/>
   <path class="fil1" d="M721678 539809c-3838,0 -7417,1063 -10417,2905l-1477 993c5953,2858 11646,6035 17009,9460 5102,3260 9933,6780 14456,10524 237,-1252 367,-2575 367,-3945 0,-5504 -2245,-10512 -5835,-14102 -3591,-3591 -8599,-5835 -14103,-5835zm-19087 -11292c5575,-3413 12119,-5386 19087,-5386 10099,0 19276,4111 25890,10725 6615,6614 10725,15792 10725,25890 0,4111 -720,8150 -2043,11977 -1347,3898 -3343,7500 -5800,10642l-5728 7323 -6638 -6508c-5953,-5847 -12768,-11233 -20221,-16004 -7488,-4784 -15721,-9024 -24484,-12556l-8434 -3390 4134 -8102c3083,-6036 7784,-11115 13512,-14611z"/>
  </g>
 </g>
</svg>
