<?xml version="1.0" encoding="UTF-8"?>
<!DOCTYPE svg PUBLIC "-//W3C//DTD SVG 1.1//EN" "http://www.w3.org/Graphics/SVG/1.1/DTD/svg11.dtd">
<!-- Creator: CorelDRAW X8 -->
<svg xmlns="http://www.w3.org/2000/svg" xml:space="preserve" width="132px" height="132px" version="1.1" style="shape-rendering:geometricPrecision; text-rendering:geometricPrecision; image-rendering:optimizeQuality; fill-rule:evenodd; clip-rule:evenodd"
viewBox="0 0 1320000 1320000"
 xmlns:xlink="http://www.w3.org/1999/xlink">
 <defs>
  <style type="text/css">
   <![CDATA[
    .fil0 {fill:#C5C6C6;fill-rule:nonzero}
    .fil1 {fill:#2B2A29;fill-rule:nonzero}
   ]]>
  </style>
 </defs>
 <g id="Layer_x0020_1">
  <metadata id="CorelCorpID_0Corel-Layer"/>
  <g id="_3050926687248">
   <path class="fil0" d="M660000 1654c181775,0 346388,73702 465516,192830 119128,119128 192830,283741 192830,465516 0,181775 -73702,346388 -192830,465516 -119128,119128 -283741,192830 -465516,192830 -181775,0 -346388,-73702 -465516,-192830 -119128,-119128 -192830,-283741 -192830,-465516 0,-181775 73702,-346388 192830,-465516 119128,-119128 283741,-192830 465516,-192830zm453729 204617c-116105,-116104 -276537,-187940 -453729,-187940 -177192,0 -337624,71836 -453729,187940 -116104,116105 -187940,276537 -187940,453729 0,177192 71836,337624 187940,453729 116105,116104 276537,187940 453729,187940 177192,0 337624,-71836 453729,-187940 116104,-116105 187940,-276537 187940,-453729 0,-177192 -71836,-337624 -187940,-453729z"/>
   <path class="fil1" d="M653764 493840c67442,0 128530,27354 172727,71552 44198,44198 71553,105285 71553,172728 -1193,58111 0,116813 0,175018 0,25040 -10264,47824 -26765,64336 -16547,16536 -39331,26800 -64371,26800l-306289 0c-25063,0 -47871,-10264 -64371,-26764 -16512,-16512 -26764,-39308 -26764,-64372 0,-58253 708,-116765 35,-174948 -35,-67513 27320,-128600 71517,-172798 44198,-44198 105286,-71552 172728,-71552zm160940 83340c-41174,-41174 -98093,-66663 -160940,-66663 -62848,0 -119766,25489 -160940,66663 -41174,41174 -66663,98092 -66663,160940 284,58276 0,116695 0,175018 0,20469 8386,39096 21875,52584 13476,13477 32114,21874 52583,21874l306289 0c20481,0 39107,-8386 52596,-21862 13476,-13489 21862,-32115 21862,-52596 0,-58276 -827,-116801 36,-175018 -36,-62848 -25524,-119766 -66698,-160940z"/>
   <path class="fil1" d="M545100 341545l234075 0c-36603,56446 -73312,112845 -109773,169385 -10264,-389 -19595,-425 -29847,-59l-109750 -169326 15295 0zm203461 16678l-188153 0 87970 135723c3779,-213 8398,-118 12201,35l87982 -135758z"/>
   <path class="fil1" d="M726922 801404c0,17256 -7641,32906 -19913,44198 -12107,11138 -28761,18047 -47009,18047 -18248,0 -34902,-6909 -47009,-18047 -12272,-11292 -19913,-26942 -19913,-44198l0 -87498c0,-17256 7641,-32906 19913,-44197 12107,-11138 28761,-18048 47009,-18048 18248,0 34902,6910 47009,18048 12272,11291 19913,26941 19913,44197l-16677 0c0,-12413 -5563,-23740 -14504,-31961 -9118,-8386 -21780,-13606 -35741,-13606 -13961,0 -26623,5220 -35741,13606 -8941,8221 -14504,19548 -14504,31961l0 87498c0,12414 5563,23741 14504,31961 9118,8386 21780,13607 35741,13607 13961,0 26623,-5221 35741,-13607 8941,-8220 14504,-19547 14504,-31961l16677 0z"/>
   <polygon class="fil1" points="567801,731482 652205,731482 652205,748159 567801,748159 "/>
   <polygon class="fil1" points="567801,766915 652205,766915 652205,783593 567801,783593 "/>
  </g>
 </g>
</svg>
