<?xml version="1.0" encoding="UTF-8"?>
<!DOCTYPE svg PUBLIC "-//W3C//DTD SVG 1.1//EN" "http://www.w3.org/Graphics/SVG/1.1/DTD/svg11.dtd">
<!-- Creator: CorelDRAW X8 -->
<svg xmlns="http://www.w3.org/2000/svg" xml:space="preserve" width="132px" height="132px" version="1.1" style="shape-rendering:geometricPrecision; text-rendering:geometricPrecision; image-rendering:optimizeQuality; fill-rule:evenodd; clip-rule:evenodd"
viewBox="0 0 1320000 1320000"
 xmlns:xlink="http://www.w3.org/1999/xlink">
 <defs>
  <style type="text/css">
   <![CDATA[
    .str0 {stroke:#C5C6C6;stroke-width:16665.7}
    .fil0 {fill:none}
    .fil1 {fill:#2B2A29;fill-rule:nonzero}
   ]]>
  </style>
 </defs>
 <g id="Layer_x0020_1">
  <metadata id="CorelCorpID_0Corel-Layer"/>
  <g id="_3050926643360">
   <circle class="fil0 str0" cx="660000" cy="660000" r="650008"/>
   <path class="fil1" d="M546411 395098l6119 1098c19512,3402 61040,10677 107045,36981 46229,26422 79962,51462 107163,87167 27095,35552 47375,81285 66769,149093 3626,12650 7984,24934 13607,36131 5539,11031 12425,21248 21177,30071 8941,9024 18166,16382 26481,23020 12354,9910 22996,18402 29634,29457 12544,20871 12863,49560 13134,75994l59 5315c367,28335 -3236,31784 -36130,32209 -151503,756 -303076,284 -454591,591 -2327,94 -4748,165 -7347,12l-6933 11 981 -815c-3402,-720 -7146,-1984 -11398,-4169 -12721,-6520 -22347,-15910 -29871,-27307 -7264,-11020 -12496,-23836 -16654,-37690 -13807,-46088 -11350,-77647 -7216,-130562l921 -11409c1134,-8965 2468,-18532 4016,-28489 1453,-9650 3189,-19866 5197,-30532 5539,-29280 13039,-60273 23327,-90002 10347,-29882 23575,-58465 40489,-82655 9449,-13523 22288,-28677 36792,-40819 12532,-10489 26481,-18863 40878,-22335 8764,-2114 17623,-2433 26351,-366zm104896 52536c-25831,-14764 -50257,-23221 -69734,-28312 27532,34879 35033,93994 31099,156358 -5173,81887 -30083,170282 -54969,215590 -9721,17717 -21886,35020 -37713,52950 -11764,13323 -25524,26977 -41789,41363l423079 -555c17906,-225 19878,-1890 19713,-15414l-59 -5362c-260,-24237 -544,-50541 -10796,-67608 -5149,-8575 -14657,-16158 -25701,-24992 -8681,-6898 -18272,-14552 -27933,-24296 -10040,-10111 -17906,-21792 -24225,-34371 -6248,-12437 -10961,-25618 -14788,-38989 -18815,-65788 -38245,-109844 -63958,-143565 -25583,-33568 -57828,-57415 -102226,-82797zm-198594 437913c22406,-18732 40335,-35882 54851,-52335 14906,-16890 26375,-33213 35564,-49950 23918,-43560 47918,-129061 52938,-208622 3768,-59847 -3142,-115903 -28973,-146766 -3685,-4418 -7453,-7902 -11185,-10500 -10241,-7170 -21190,-8375 -31950,-5776 -11598,2776 -23292,9921 -34099,18957 -13358,11185 -25181,25134 -33863,37560 -15968,22843 -28524,50020 -38410,78568 -9933,28701 -17232,58938 -22666,87663 -1878,9969 -3590,20055 -5114,29989 -1500,9461 -2799,18756 -3921,27614l-839 10985c-3980,51036 -6354,81486 6555,124585 3745,12496 8351,23894 14576,33319 5976,9059 13606,16512 23587,21638 6826,3497 12082,3308 16854,3130l6095 -59z"/>
   <path class="fil1" d="M525316 478001c-36921,4512 -57142,75544 -68044,113895l-3142 10784c-14705,49655 -27237,105368 -27378,146967 -95,29375 5752,51072 21319,56434 19099,6579 42202,-34807 61135,-89694 11929,-34595 21744,-74340 27780,-111534 6000,-37016 8303,-71599 5315,-96143 -2398,-19678 -7819,-31820 -16985,-30709zm-84025 109348c11930,-42095 34111,-120037 82018,-125884 20799,-2539 31890,15461 35528,45237 3165,25997 791,62210 -5457,100750 -6213,38351 -16264,79100 -28418,114344 -21945,63639 -52064,110471 -82301,100042 -23716,-8174 -32646,-35706 -32516,-72191 154,-43465 12981,-100809 28040,-151585l3106 -10713z"/>
   <path class="fil1" d="M929733 870736c25217,2646 26410,3425 37749,10772 3248,2102 7500,4866 13429,8268 7418,4264 14882,7429 21768,7464 6201,36 12497,-2681 18591,-9886 2327,-2752 3733,-5350 3331,-7511 -520,-2788 -3532,-6213 -10158,-10406 -6767,-4299 -10996,-7512 -11409,-14008 -319,-5563 3023,-10689 11268,-17906l3897 -3862c3166,-3556 5469,-7441 5953,-11257 425,-3342 -661,-7039 -4016,-10854l-2598 -2599c-3461,-3059 -7406,-3578 -12000,-2551 -6166,1382 -13890,5351 -22950,10134 -7157,3768 -13145,6898 -21189,9626 -7878,2670 -17587,4878 -32067,6768l-2150 -16465c13169,-1712 21898,-3685 28878,-6059 6839,-2315 12272,-5161 18780,-8587 10087,-5338 18780,-9767 27060,-11622 9874,-2220 18567,-886 26681,6343l4016 4039c6886,7843 9024,16016 8020,23906 -945,7465 -4772,14327 -9992,20209 -1607,1831 -3437,3615 -5386,5327 -3792,3319 -5504,4028 -5599,4370 83,1311 1370,-508 3733,992 10949,6934 16216,14138 17575,21391 1476,7913 -1571,14941 -6992,21331 -9709,11480 -20398,15815 -31348,15744 -10287,-47 -20350,-4169 -29965,-9685 -6697,-3851 -10949,-6603 -14209,-8717 -8291,-5374 -9177,-5941 -30402,-8173l1701 -16536z"/>
  </g>
 </g>
</svg>
