<?xml version="1.0" encoding="UTF-8"?>
<!DOCTYPE svg PUBLIC "-//W3C//DTD SVG 1.1//EN" "http://www.w3.org/Graphics/SVG/1.1/DTD/svg11.dtd">
<!-- Creator: CorelDRAW X8 -->
<svg xmlns="http://www.w3.org/2000/svg" xml:space="preserve" width="132px" height="132px" version="1.1" style="shape-rendering:geometricPrecision; text-rendering:geometricPrecision; image-rendering:optimizeQuality; fill-rule:evenodd; clip-rule:evenodd"
viewBox="0 0 1320000 1320000"
 xmlns:xlink="http://www.w3.org/1999/xlink">
 <defs>
  <style type="text/css">
   <![CDATA[
    .fil0 {fill:#C5C6C6;fill-rule:nonzero}
    .fil1 {fill:#2B2A29;fill-rule:nonzero}
   ]]>
  </style>
 </defs>
 <g id="Layer_x0020_1">
  <metadata id="CorelCorpID_0Corel-Layer"/>
  <g id="_3050987895584">
   <path class="fil0" d="M660000 1654c181775,0 346388,73702 465516,192830 119128,119128 192830,283741 192830,465516 0,181775 -73702,346388 -192830,465516 -119128,119128 -283741,192830 -465516,192830 -181775,0 -346388,-73702 -465516,-192830 -119128,-119128 -192830,-283741 -192830,-465516 0,-181775 73702,-346388 192830,-465516 119128,-119128 283741,-192830 465516,-192830zm453729 204617c-116105,-116104 -276537,-187940 -453729,-187940 -177192,0 -337624,71836 -453729,187940 -116104,116105 -187940,276537 -187940,453729 0,177192 71836,337624 187940,453729 116105,116104 276537,187940 453729,187940 177192,0 337624,-71836 453729,-187940 116104,-116105 187940,-276537 187940,-453729 0,-177192 -71836,-337624 -187940,-453729z"/>
   <path class="fil1" d="M648189 491879c17858,-33402 36355,-59115 58938,-77187 26197,-20964 57461,-31465 98907,-31465 45851,0 87415,18627 117475,48686 30071,30072 48697,71635 48697,117487 0,80942 -40146,161471 -100348,241752 -59670,79572 -138735,158637 -217775,237677l-5882 5894 -5906 -5894c-79053,-79040 -158117,-158105 -217787,-237677 -60202,-80281 -100349,-160810 -100349,-241752 0,-45828 18627,-87380 48686,-117451 30107,-30095 71659,-48722 117487,-48722 41422,0 72686,10489 98907,31465 22583,18072 41068,43785 58950,77187zm69284 -64241c-23575,18850 -42662,47575 -61867,86009l-7405 14835 -7430 -14835c-19217,-38434 -38304,-67159 -61879,-86009 -23103,-18485 -51083,-27733 -88560,-27733 -41269,0 -78663,16748 -105711,43784 -27036,27048 -43784,64442 -43784,105711 0,76879 38788,154231 96946,231783 57226,76313 133585,153145 210406,229965 76808,-76820 153168,-153652 210393,-229965 58159,-77552 96947,-154904 96947,-231783 0,-41257 -16748,-78640 -43808,-105699 -27036,-27036 -64430,-43796 -105687,-43796 -37501,0 -65470,9248 -88561,27733z"/>
   <path class="fil1" d="M622110 568935l52134 0c7264,0 13902,2977 18686,7760 4771,4819 7760,11434 7760,18686l0 68044 68056 0c7240,0 13855,2989 18638,7760 4819,4784 7796,11422 7796,18686l0 52134c0,7264 -2977,13890 -7760,18674 -4784,4784 -11410,7760 -18674,7760l-68056 0 0 68056c0,7264 -2977,13890 -7760,18674 -4784,4783 -11410,7760 -18686,7760l-52134 0c-7253,0 -13879,-2988 -18662,-7784 -4796,-4760 -7772,-11386 -7772,-18650l0 -68056 -68056 0c-7264,0 -13890,-2976 -18674,-7760 -4783,-4784 -7760,-11410 -7760,-18674l0 -52134c0,-7264 2977,-13902 7760,-18686 4819,-4771 11433,-7760 18674,-7760l68056 0 0 -68044c0,-7276 2976,-13902 7760,-18686 4784,-4783 11410,-7760 18674,-7760zm52134 16678l-52134 0c-2670,0 -5127,1110 -6886,2870 -1760,1760 -2871,4228 -2871,6898l0 84722 -84733 0c-2681,0 -5150,1098 -6910,2846 -1736,1784 -2846,4252 -2846,6922l0 52134c0,2670 1110,5126 2870,6886 1760,1760 4216,2870 6886,2870l84733 0 0 84734c0,2670 1111,5126 2871,6886 1736,1784 4193,2870 6886,2870l52134 0c2670,0 5138,-1110 6898,-2870 1760,-1760 2870,-4216 2870,-6886l0 -84734 84734 0c2669,0 5126,-1110 6886,-2870 1760,-1760 2870,-4216 2870,-6886l0 -52134c0,-2670 -1110,-5138 -2870,-6898 -1748,-1772 -4205,-2870 -6886,-2870l-84734 0 0 -84722c0,-2693 -1110,-5162 -2858,-6922 -1772,-1736 -4240,-2846 -6910,-2846z"/>
  </g>
 </g>
</svg>
