<?xml version="1.0" encoding="UTF-8"?>
<!DOCTYPE svg PUBLIC "-//W3C//DTD SVG 1.1//EN" "http://www.w3.org/Graphics/SVG/1.1/DTD/svg11.dtd">
<!-- Creator: CorelDRAW X8 -->
<svg xmlns="http://www.w3.org/2000/svg" xml:space="preserve" width="320px" height="320px" version="1.1" style="shape-rendering:geometricPrecision; text-rendering:geometricPrecision; image-rendering:optimizeQuality; fill-rule:evenodd; clip-rule:evenodd"
viewBox="0 0 3200000 3200000"
 xmlns:xlink="http://www.w3.org/1999/xlink">
 <defs>
  <style type="text/css">
   <![CDATA[
    .fil0 {fill:#fff;fill-rule:nonzero}
   ]]>
  </style>
 </defs>
 <g id="Layer_x0020_1">
  <metadata id="CorelCorpID_0Corel-Layer"/>
  <g id="_3051045284672">
   <path class="fil0" d="M2427614 2695324c-165284,385490 -604290,569353 -992768,422199 10216,4902 20504,9744 31016,14197 395966,169784 854579,-13524 1024398,-409526 169820,-395942 -13523,-854590 -409525,-1024386 -10524,-4512 -21095,-8634 -31654,-12686 374364,179978 543853,624759 378533,1010202z"/>
   <path class="fil0" d="M899827 436703c205312,-365742 661350,-501936 1031982,-314340 -9591,-5953 -19335,-11847 -29315,-17410 -375711,-210910 -851225,-77339 -1062136,298360 -210875,375699 -77291,851260 298407,1062112 9957,5622 20044,10854 30131,15968 -353152,-218765 -474381,-678960 -269069,-1044690z"/>
   <path class="fil0" d="M1680339 2181034c-70819,0 -121501,-12614 -152103,-37996 -30591,-25299 -45898,-67205 -45898,-125564l0 -319891 64583 0c38232,0 70489,496 96839,1453 26303,945 48981,2610 68103,4996 19169,2398 35905,6012 50220,10795 14363,4784 29186,10512 44481,17185 88973,43075 133418,118619 133418,226655 0,148276 -86528,222367 -259643,222367zm-198001 -951111c0,-16240 8126,-24366 24402,-24366l110469 0c78402,0 136063,16465 172879,49453 36767,33059 55216,87296 55216,162851 0,43052 -6460,77942 -19346,104694 -12922,26752 -34689,49736 -65327,68882 -11433,7677 -22678,13630 -33674,17906 -11019,4346 -23669,7689 -38031,10074 -14339,2398 -31560,4063 -51627,5008 -20090,945 -44964,1453 -74610,1453l-80351 0 0 -395955zm310950 419873c78202,-25087 135981,-56528 173245,-94241 39674,-40181 59552,-91796 59552,-154950 0,-83173 -35882,-147768 -107635,-193666 -71717,-45886 -172123,-68870 -301241,-68870l-428955 0 0 54531c30602,1937 55465,5056 74610,9343 19123,4276 33721,12461 43749,24366 10027,12012 16712,28264 20090,48792 3343,20575 4996,47622 4996,81059l0 260364c-375049,-45461 -667963,-357061 -684464,-740319 -484,11351 -850,22701 -850,34099 0,398730 299187,727586 685314,774370l0 339982c0,33543 -2126,60756 -6437,81780 -4299,21035 -12437,37334 -24389,48779 -11977,11481 -29162,19595 -51650,24378 -22453,4784 -52347,7678 -89646,8622l0 54532 516451 0c41126,0 76784,-732 106890,-2185 30118,-1441 56658,-3779 79595,-7169 22949,-3331 43040,-7618 60284,-12910 17185,-5232 33921,-12177 50185,-20811 50705,-24862 90142,-59020 118371,-102532 28181,-43500 42272,-90626 42272,-141308 0,-21354 -3260,-41327 -9118,-60023 149764,135626 246639,328619 255910,544325 508,-11350 886,-22701 886,-34110 0,-364514 -250064,-670669 -588015,-756228z"/>
  </g>
 </g>
</svg>
