<?xml version="1.0" encoding="UTF-8"?>
<!DOCTYPE svg PUBLIC "-//W3C//DTD SVG 1.1//EN" "http://www.w3.org/Graphics/SVG/1.1/DTD/svg11.dtd">
<!-- Creator: CorelDRAW X8 -->
<svg xmlns="http://www.w3.org/2000/svg" xml:space="preserve" width="170px" version="1.1" style="shape-rendering:geometricPrecision; text-rendering:geometricPrecision; image-rendering:optimizeQuality; fill-rule:evenodd; clip-rule:evenodd"
viewBox="0 0 3000000 729998"
 xmlns:xlink="http://www.w3.org/1999/xlink">
 <defs>
  <style type="text/css">
   <![CDATA[
    .fil0 {fill:#34302F;fill-rule:nonzero}
   ]]>
  </style>
 </defs>
 <g id="Layer_x0020_1">
  <metadata id="CorelCorpID_0Corel-Layer"/>
  <g id="_2024163355568">
   <path class="fil0" d="M159521 331762c53847,0 80788,-23078 80788,-69165 0,-33627 -13843,-57143 -41516,-70548 -4760,-2055 -9378,-3886 -13843,-5351 -4453,-1464 -9661,-2563 -15614,-3366 -5953,-732 -13016,-1252 -21201,-1547 -8185,-295 -18225,-437 -30130,-437l-20091 0 0 99568c0,18094 4772,31134 14292,39047 9519,7843 25287,11799 47315,11799zm-36603 -172761c9225,0 16961,-141 23209,-437 6248,-295 11599,-803 16075,-1535 4465,-732 8398,-1760 11823,-3154 3425,-1323 6921,-3153 10488,-5575 9520,-5929 16288,-13110 20304,-21390 4015,-8350 6035,-19193 6035,-32598 0,-23516 -5740,-40371 -17197,-50623 -11457,-10334 -29386,-15460 -53776,-15460l-34370 0c-5055,0 -7595,2563 -7595,7618l0 123154 25004 0zm-125422 191955l0 -16926c11610,-295 20906,-1252 27886,-2716 7004,-1465 12355,-4028 16075,-7619 3732,-3507 6248,-8563 7595,-15165 1334,-6520 2007,-15012 2007,-25418l0 -207993c0,-10406 -531,-18827 -1559,-25205 -1051,-6378 -3130,-11433 -6260,-15166 -3118,-3732 -7665,-6307 -13606,-7618 -5965,-1323 -13689,-2279 -23221,-2858l0 -16996 133466 0c40181,0 71410,7110 93733,21390 22311,14291 33473,34429 33473,60295 0,19630 -6189,35682 -18520,48213 -12354,12449 -31925,22784 -58701,30768l0 1831c9224,874 17256,1902 24106,3071 6839,1252 12945,2646 18296,4252 5362,1689 10346,3661 14952,6012 4619,2421 9154,5055 13619,8055 26480,18756 39720,42272 39720,70560 0,15744 -4393,30401 -13169,43949 -8776,13488 -21047,24177 -36815,31878 -5067,2705 -10264,4831 -15626,6520 -5363,1606 -11599,2929 -18745,3956 -7133,1099 -15401,1831 -24767,2268 -9378,437 -20469,662 -33261,662l-160678 0z"/>
   <path class="fil0" d="M729053 212553c0,23528 -2315,44256 -6921,62055 -4618,17882 -12059,32753 -22323,44623 -10264,11941 -23587,20953 -39946,27036 -16370,6082 -36153,9153 -59362,9153 -22028,0 -41221,-2197 -57579,-6449 -16371,-4323 -30060,-11504 -41068,-21461 -11008,-9968 -19181,-23008 -24543,-39047 -5351,-16051 -8032,-35835 -8032,-59351l0 -117804c0,-22051 -519,-38977 -1559,-50918 -1051,-11870 -4098,-20657 -9153,-26303 -3579,-3886 -8422,-6520 -14504,-7843 -6107,-1311 -14221,-1972 -24331,-1972l0 -16996 152198 0 0 16996c-10111,0 -18296,579 -24544,1760 -6248,1169 -11161,4169 -14728,8941 -4170,5338 -6851,13913 -8032,25642 -1193,11787 -1783,28642 -1783,50693l0 121395c0,15165 1559,28653 4677,40370 3130,11728 8256,21685 15402,29894 7145,8209 16429,14362 27897,18532 11457,4181 25501,6236 42178,6236 29752,0 52075,-8209 66945,-24768 14882,-16488 22323,-40807 22323,-72969l0 -107552c0,-26528 -1051,-46595 -3118,-60296 -2090,-13630 -5964,-23303 -11610,-29020 -4169,-3803 -9378,-6295 -15626,-7323 -6236,-1027 -13985,-1535 -23197,-1535l0 -16996 129426 0 0 16996c-9532,0 -17339,732 -23421,2197 -6119,1464 -10949,4760 -14516,9815 -4453,6224 -7441,15968 -8930,29232 -1488,13264 -2220,32233 -2220,56930l0 90107z"/>
   <path class="fil0" d="M1350790 266624c0,14870 591,26599 1784,35245 1181,8645 3484,15307 6921,20067 3413,4771 8315,7913 14717,9378 6401,1464 14811,2421 25228,2716l0 16926 -144615 0 0 -16926c10405,-295 18803,-1323 25217,-2929 6389,-1618 11385,-4689 14952,-9165 3567,-4465 5941,-10760 7134,-18969 1193,-8209 1796,-19264 1796,-33260l0 -181183c0,-12531 -532,-22854 -1559,-31063 -1052,-8138 -3130,-14658 -6248,-19417 -3130,-4760 -7666,-8056 -13619,-10040 -5953,-1901 -13689,-3153 -23209,-3732l0 -16996 135687 0 0 16996c-9532,295 -17186,1464 -22985,3520 -5811,2126 -10276,5563 -13394,10476 -3130,4902 -5220,11717 -6248,20362 -1051,8646 -1559,19630 -1559,32965l0 175029z"/>
   <path class="fil0" d="M1808388 355420l-212009 -279427 -1796 0 0 190631c0,14870 520,26599 1559,35245 1052,8645 3130,15307 6260,20067 3130,4771 7595,7913 13382,9378 5811,1464 13465,2421 22997,2716l0 16926 -120072 0 0 -16926c10417,-295 18815,-1323 25228,-2929 6390,-1618 11386,-4689 14941,-9165 3579,-4465 5953,-10760 7146,-18969 1181,-8209 1784,-19264 1784,-33260l0 -181183c0,-12531 -520,-22854 -1559,-31063 -1052,-8138 -3119,-14658 -6249,-19417 -3118,-4760 -7665,-8056 -13606,-10040 -5965,-1901 -13701,-3153 -23221,-3732l0 -16996 88383 0 195037 260234 1795 0 0 -175915c0,-14575 -519,-26220 -1559,-35020 -1051,-8787 -3130,-15531 -6248,-20291 -3130,-4760 -7583,-7914 -13394,-9378 -5799,-1465 -13464,-2339 -22996,-2634l0 -16996 120072 0 0 16996c-10418,295 -18815,1240 -25217,2858 -6401,1677 -11374,4689 -14953,9154 -3567,4476 -5953,10842 -7145,19193 -1182,8350 -1772,19346 -1772,33047l0 266896 -26788 0z"/>
   <path class="fil0" d="M2099580 162155c16063,0 29527,-957 40382,-2929 10866,-1914 19500,-4985 25902,-9083 6389,-4181 10996,-9532 13830,-16122 2823,-6520 4241,-14292 4241,-23221l15626 0 0 121903 -15626 0c0,-8930 -1276,-16701 -3792,-23221 -2539,-6520 -7004,-12012 -13394,-16335 -6401,-4252 -15023,-7547 -25890,-9815 -10866,-2209 -24626,-3307 -41279,-3307l0 100891c0,9815 1192,17870 3566,24319 2375,6378 6473,11575 12272,15602 5811,4040 13465,6815 22985,8504 9519,1606 21271,2421 35268,2421 15767,0 29161,-1098 40169,-3378 11008,-2196 20233,-6000 27662,-11350 7441,-5350 13394,-12378 17858,-21177 4465,-8788 8185,-19701 11162,-32823l16961 0 0 87922 -283869 0 0 -16926c10406,-295 18815,-1252 25229,-2716 6378,-1465 11362,-4028 14941,-7619 3567,-3507 5953,-8563 7146,-15165 1181,-6520 1783,-15012 1783,-25418l0 -207993c0,-10406 -520,-18827 -1559,-25205 -1051,-6378 -3130,-11433 -6248,-15166 -3130,-3732 -7666,-6307 -13618,-7618 -5953,-1323 -13689,-2279 -23209,-2858l0 -16996 261994 0 0 78532 -15626 0c-1784,-11870 -4677,-21615 -8693,-29233 -4016,-7535 -9532,-13618 -16524,-18024 -6992,-4464 -15839,-7618 -26551,-9378 -10713,-1830 -23658,-2704 -38823,-2704l-56694 0c-5067,0 -7582,2563 -7582,7618l0 128068z"/>
   <path class="fil0" d="M2406810 246037l16512 0c2079,13406 6036,25501 11823,36201 5811,10690 13099,19772 21886,27178 8776,7476 18886,13181 30355,17209 11433,4039 23870,6011 37252,6011 22028,0 39425,-5196 52229,-15602 12791,-10406 19193,-24544 19193,-42426 0,-7393 -1276,-14279 -3792,-20504 -2539,-6236 -6767,-12319 -12720,-18106 -5965,-5788 -13914,-11492 -23882,-17138 -9981,-5646 -22536,-11799 -37725,-18319 -18437,-8055 -33910,-15744 -46418,-23221 -12484,-7405 -22464,-15165 -29894,-23220 -7441,-7996 -12720,-16560 -15850,-25642 -3118,-9095 -4677,-19418 -4677,-30993 0,-13701 2445,-26374 7358,-37961 4913,-11645 11823,-21685 20752,-30106 8929,-8492 19489,-15012 31689,-19630 11268,-4264 23540,-6591 36839,-6922l6473 0c11905,319 23067,2410 33461,6190 11303,4169 22760,10913 34358,20137l11611 -20137 15177 0 0 88866 -16512 0c-7146,-24401 -17492,-42567 -31028,-54508 -13535,-11870 -29835,-17799 -48863,-17799 -18153,0 -32586,4464 -43299,13405 -10713,8859 -16063,20953 -16063,36119 0,7181 1169,13618 3567,19417 2386,5788 6248,11280 11598,16477 5363,5279 12343,10476 20989,15685 8622,5197 19334,10618 32126,16264 22028,9815 40323,18968 54910,27472 14575,8422 26173,16926 34807,25418 8622,8504 14729,17445 18307,26823 3556,9295 5351,19843 5351,31429 0,14871 -2977,28571 -8929,41091 -5941,12461 -14280,23162 -24993,32091 -10712,8941 -23504,15827 -38386,20740 -14882,4902 -31240,7394 -49099,7394 -16960,0 -32209,-2409 -45744,-7181 -13547,-4689 -27307,-12744 -41292,-24024l-12496 21827 -16961 0 0 -100005z"/>
   <path class="fil0" d="M897633 246037l16512 0c2079,13406 6024,25501 11835,36201 5799,10690 13086,19772 21862,27178 8776,7476 18898,13181 30355,17209 11456,4039 23882,6011 37276,6011 22015,0 39413,-5196 52217,-15602 12791,-10406 19193,-24544 19193,-42426 0,-7393 -1276,-14279 -3792,-20504 -2539,-6236 -6779,-12319 -12720,-18106 -5953,-5788 -13914,-11492 -23882,-17138 -9969,-5646 -22536,-11799 -37713,-18319 -18449,-8055 -33922,-15744 -46430,-23221 -12484,-7405 -22453,-15165 -29894,-23220 -7441,-7996 -12732,-16560 -15850,-25642 -3118,-9095 -4689,-19418 -4689,-30993 0,-13701 2456,-26374 7370,-37961 4913,-11645 11823,-21685 20752,-30106 8917,-8492 19488,-15012 31689,-19630 11268,-4264 23540,-6591 36839,-6922l6484 0c11894,319 23044,2410 33449,6190 11315,4169 22760,10913 34371,20137l11610 -20137 15166 0 0 88866 -16512 0c-7134,-24401 -17481,-42567 -31016,-54508 -13548,-11870 -29847,-17799 -48887,-17799 -18141,0 -32575,4464 -43287,13405 -10713,8859 -16063,20953 -16063,36119 0,7181 1181,13618 3567,19417 2374,5788 6259,11280 11598,16477 5362,5279 12354,10476 20988,15685 8623,5197 19335,10618 32127,16264 22027,9815 40323,18968 54898,27472 14586,8422 26185,16926 34819,25418 8634,8504 14728,17445 18307,26823 3567,9295 5351,19843 5351,31429 0,14871 -2989,28571 -8930,41091 -5952,12461 -14279,23162 -24992,32091 -10713,8941 -23504,15827 -38386,20740 -14882,4902 -31240,7394 -49087,7394 -16961,0 -32221,-2409 -45756,-7181 -13548,-4689 -27308,-12744 -41280,-24024l-12508 21827 -16961 0 0 -100005z"/>
   <path class="fil0" d="M2764616 246037l16524 0c2067,13406 6024,25501 11835,36201 5787,10690 13086,19772 21862,27178 8776,7476 18898,13181 30355,17209 11445,4039 23870,6011 37264,6011 22027,0 39425,-5196 52229,-15602 12779,-10406 19181,-24544 19181,-42426 0,-7393 -1264,-14279 -3792,-20504 -2527,-6236 -6767,-12319 -12720,-18106 -5953,-5788 -13902,-11492 -23870,-17138 -9981,-5646 -22548,-11799 -37725,-18319 -18449,-8055 -33910,-15744 -46418,-23221 -12496,-7405 -22465,-15165 -29906,-23220 -7441,-7996 -12708,-16560 -15850,-25642 -3118,-9095 -4677,-19418 -4677,-30993 0,-13701 2456,-26374 7370,-37961 4901,-11645 11811,-21685 20740,-30106 8941,-8492 19489,-15012 31701,-19630 11256,-4264 23540,-6591 36839,-6922l6484 0c11894,319 23044,2410 33449,6190 11304,4169 22760,10913 34359,20137l11610 -20137 15166 0 0 88866 -16500 0c-7146,-24401 -17493,-42567 -31028,-54508 -13547,-11870 -29835,-17799 -48875,-17799 -18153,0 -32575,4464 -43299,13405 -10701,8859 -16051,20953 -16051,36119 0,7181 1181,13618 3555,19417 2386,5788 6260,11280 11610,16477 5362,5279 12343,10476 20977,15685 8622,5197 19334,10618 32138,16264 22016,9815 40311,18968 54898,27472 14575,8422 26185,16926 34807,25418 8634,8504 14740,17445 18307,26823 3567,9295 5351,19843 5351,31429 0,14871 -2965,28571 -8918,41091 -5952,12461 -14279,23162 -25004,32091 -10701,8941 -23504,15827 -38374,20740 -14894,4902 -31240,7394 -49099,7394 -16961,0 -32221,-2409 -45744,-7181 -13560,-4689 -27308,-12744 -41280,-24024l-12508 21827 -16973 0 0 -100005z"/>
   <path class="fil0" d="M775801 686864c0,12236 -4559,22051 -13712,29315 -9130,7323 -21225,10984 -36272,10984 -18048,0 -31961,-2055 -41741,-6012l0 -10393c10678,4535 24331,6803 40961,6803 12107,0 21733,-2776 28878,-8351 7146,-5563 10713,-12886 10713,-22051 0,-5421 -1157,-10039 -3496,-13701 -2327,-3732 -6224,-7098 -11669,-10252 -5457,-3083 -13264,-6378 -23422,-9815 -15189,-5280 -25677,-10996 -31476,-17079 -5788,-6071 -8670,-14433 -8670,-24910 0,-10547 4311,-19334 12957,-26374 8646,-7027 19902,-10547 33733,-10547 13842,0 26893,2716 39153,7984l-3720 8941c-12260,-5197 -23929,-7771 -35032,-7771 -11091,0 -19949,2574 -26575,7629 -6461,5127 -9697,12012 -9697,20658 0,5492 1016,10040 3047,13630 2032,3579 5245,6733 9638,9449 4406,2776 12248,6154 23528,10110 11362,3804 20020,7689 25949,11575 5941,3886 10252,8197 12921,12898 2658,4760 4004,10465 4004,17280z"/>
   <polygon class="fil0" points="979661,586422 979661,725108 969161,725108 969161,586422 920984,586422 920984,576607 1027933,576607 1027933,586422 "/>
   <path class="fil0" d="M1205065 610009l-20776 53410 53032 0 -20197 -53481c-1642,-4099 -3685,-9886 -6083,-17504 -1736,6083 -3732,11941 -5976,17575zm56398 115099l-20646 -52382 -60355 0 -20646 52382 -11516 0 59682 -149009 6661 0 58442 149009 -11622 0z"/>
   <path class="fil0" d="M1462949 715954c44303,0 66449,-22051 66449,-66083 0,-21177 -5374,-37146 -16122,-47917 -10760,-10772 -26634,-16193 -47623,-16193l-27295 0 0 130193 24591 0zm5185 -139347c23693,0 41705,6224 54047,18602 12343,12461 18508,30851 18508,55170 0,24331 -6531,42863 -19583,55607 -13039,12756 -32256,19122 -57591,19122l-35539 0 0 -148501 40158 0z"/>
   <polygon class="fil0" points="1708655,725108 1719037,725108 1719037,576642 1708655,576642 "/>
   <path class="fil0" d="M1993752 576607l10370 0 0 96119c0,16996 -4937,30331 -14835,40004 -9886,9602 -23563,14433 -41008,14433 -17457,0 -30992,-4831 -40618,-14433 -9626,-9673 -14445,-23150 -14445,-40441l0 -95682 10500 0 0 96119c0,14291 3968,25429 11894,33343 7937,7984 19027,11941 33283,11941 14256,0 25288,-3957 33119,-11729 7819,-7842 11740,-18685 11740,-32528l0 -97146z"/>
   <path class="fil0" d="M2188340 613824l0 111284 -9933 0 0 -148501 16028 0 52689 130702 567 0 52571 -130702 15685 0 0 148501 -10488 0 0 -112454c0,-7547 413,-15685 1240,-24401l-791 0 -55619 136855 -6543 0 -55406 -137068 -779 0c519,7902 779,16477 779,25784z"/>
  </g>
 </g>
</svg>
