<?xml version="1.0" encoding="UTF-8"?>
<!DOCTYPE svg PUBLIC "-//W3C//DTD SVG 1.1//EN" "http://www.w3.org/Graphics/SVG/1.1/DTD/svg11.dtd">
<!-- Creator: CorelDRAW X8 -->
<svg xmlns="http://www.w3.org/2000/svg" xml:space="preserve" width="24px" height="36px" version="1.1" style="shape-rendering:geometricPrecision; text-rendering:geometricPrecision; image-rendering:optimizeQuality; fill-rule:evenodd; clip-rule:evenodd"
viewBox="0 0 410000 640017"
 xmlns:xlink="http://www.w3.org/1999/xlink">
 <defs>
  <style type="text/css">
   <![CDATA[
    .fil0 {fill:#ffffff;fill-rule:nonzero}
   ]]>
  </style>
 </defs>
 <g id="Layer_x0020_1">
  <metadata id="CorelCorpID_0Corel-Layer"/>
  <g id="_2023917210864">
   <path class="fil0" d="M204988 6272c56246,0 107378,23009 144431,60061 37053,37053 60061,88185 60061,144419l0 218513c0,56234 -23008,107366 -60061,144418 -37053,37053 -88185,60062 -144419,60062 -56246,0 -107378,-23009 -144431,-60062 -37052,-37052 -60061,-88184 -60061,-144418l0 -218513c0,-56234 23009,-107366 60061,-144419 37053,-37052 88185,-60061 144419,-60061zm12 25017c-49360,0 -94244,20197 -126761,52714 -32517,32517 -52714,77401 -52714,126749l0 218513c0,49348 20197,94231 52714,126748 32517,32517 77401,52715 126749,52715 49360,0 94244,-20198 126761,-52715 32517,-32517 52715,-77400 52715,-126748l0 -218513c0,-49348 -20198,-94232 -52715,-126749 -32517,-32517 -77401,-52714 -126749,-52714z"/>
   <polygon class="fil0" points="217497,163022 217497,296669 192480,296669 192480,163022 "/>
  </g>
 </g>
</svg>
