<?xml version="1.0" encoding="UTF-8"?>
<!DOCTYPE svg PUBLIC "-//W3C//DTD SVG 1.1//EN" "http://www.w3.org/Graphics/SVG/1.1/DTD/svg11.dtd">
<!-- Creator: CorelDRAW X8 -->
<svg xmlns="http://www.w3.org/2000/svg" xml:space="preserve" width="23px" height="23px" version="1.1" style="shape-rendering:geometricPrecision; text-rendering:geometricPrecision; image-rendering:optimizeQuality; fill-rule:evenodd; clip-rule:evenodd"
viewBox="0 0 660000 620006"
 xmlns:xlink="http://www.w3.org/1999/xlink">
 <defs>
  <style type="text/css">
   <![CDATA[
    .fil0 {fill:#2B2A29;fill-rule:nonzero}
   ]]>
  </style>
 </defs>
 <g id="Layer_x0020_1">
  <metadata id="CorelCorpID_0Corel-Layer"/>
  <g id="_2024016253760">
   <path class="fil0" d="M329882 104614c56683,0 108027,22997 145174,60144 37159,37159 60156,88503 60156,145186 0,56636 -22997,107969 -60179,145151 -37124,37171 -88468,60168 -145151,60168 -56683,0 -108028,-22997 -145175,-60144 -37158,-37206 -60155,-88539 -60155,-145175 0,-56648 22985,-107968 60144,-145139 37217,-37206 88538,-60191 145186,-60191zm127504 77814c-32611,-32612 -77707,-52797 -127504,-52797 -49821,0 -94917,20174 -127540,52773 -32600,32623 -52774,77719 -52774,127540 0,49833 20162,94917 52762,127505 32659,32611 77755,52797 127552,52797 49797,0 94893,-20186 127504,-52797 32647,-32588 52809,-77672 52809,-127505 0,-49797 -20185,-94893 -52809,-127516z"/>
   <path class="fil0" d="M539700 139529c-4334,-5339 -3531,-13206 1808,-17540 5338,-4335 13205,-3532 17540,1807 22760,28017 40489,60274 51816,95259 10891,33663 15887,69900 13796,107343 -4535,81380 -41671,153253 -97988,203617 -56328,50364 -131874,79255 -213243,74707 -17824,-980 -35116,-3543 -51711,-7453 -17020,-4027 -33580,-9579 -49478,-16477 -6307,-2716 -9213,-10063 -6496,-16370 2716,-6308 10063,-9213 16370,-6497 14328,6225 29482,11280 45274,15013 15402,3626 31264,5988 47411,6886 74530,4158 143710,-22276 195266,-68377 51546,-46088 85551,-111901 89697,-186420 1913,-34300 -2658,-67514 -12639,-98342 -10358,-31997 -26575,-61502 -47423,-87156zm-415904 345319c4441,5256 3791,13134 -1465,17575 -5256,4442 -13134,3792 -17575,-1464 -24048,-28324 -42829,-61242 -54864,-97114 -11587,-34513 -16950,-71802 -14800,-110366 4547,-81393 41682,-153265 97999,-203629 56329,-50364 131875,-79243 213256,-74696 20268,1134 39970,4299 58856,9260 19430,5103 38057,12131 55632,20824 6178,3035 8705,10524 5670,16701 -3036,6178 -10524,8705 -16701,5670 -16123,-7973 -33179,-14410 -50955,-19076 -17304,-4547 -35340,-7453 -53872,-8480 -74542,-4158 -143722,22264 -195279,68364 -51545,46089 -85550,111902 -89708,186432 -1972,35340 2941,69475 13548,101082 11008,32801 28218,62956 50258,88917z"/>
   <path class="fil0" d="M471926 26918c-6142,-3071 -8646,-10559 -5575,-16701 3071,-6142 10560,-8646 16702,-5575 40489,20351 76384,48521 105606,82444 29068,33733 51687,73231 65849,116484 2126,6556 -1453,13607 -8008,15733 -6556,2126 -13607,-1453 -15733,-8008 -13135,-40100 -34065,-76680 -60959,-107886 -27167,-31525 -60439,-57663 -97882,-76491z"/>
   <path class="fil0" d="M188074 593076c6142,3071 8646,10560 5575,16702 -3071,6142 -10560,8646 -16702,5575 -40489,-20351 -76384,-48522 -105606,-82444 -29068,-33734 -51687,-73231 -65849,-116485 -2126,-6555 1453,-13606 8008,-15732 6556,-2127 13607,1452 15733,8008 13135,40100 34065,76680 60959,107885 27167,31525 60439,57664 97882,76491z"/>
  </g>
 </g>
</svg>
